<svg xmlns="http://www.w3.org/2000/svg" viewBox="0 0 929.9 149.9"><path class="st0" d="M6.1 82l5.6-.1c4.6 21.9 13.6 29.2 26.7 29.2 10.4 0 16.7-7.7 16.7-17 0-9.6-5.6-13.9-18.2-21.2C25.5 66.3 16 59.3 16 45.1c0-16.6 13.9-29.2 32.9-29.2 8.5 0 15.7 2.2 21.2 5.7l6-5.4 4.7.1-4.6 30.8-5.4.3C66.2 30 59.7 22.6 49.4 22.6c-9.3 0-15.5 6.3-15.5 15.6 0 8.8 5.3 12.4 18.1 19.6 12.3 7.2 21 13.8 21 28 0 19.9-17 31.7-35.2 31.7-10.9 0-20.7-2.8-27.2-6.3l-5.7 5.6-4.9-.1L6.1 82zM82.7 96.1c0-29 27.3-53.3 47.2-53.3 6.5 0 10.3 1.5 15 4l8.2-7.5 3.9 1.4L144.2 99c-1.4 7-.8 8.2 12.7 8.4l.6 3.1c-6.8 4-13.9 6.8-20.6 6.8-8.5 0-11.1-5.2-9.7-13.8l-1.5-.4c-8.9 9-15 14.2-24.1 14.2-10.8-.1-18.9-8-18.9-21.2zm45-.4l7.8-35.9c-3.5-4.9-7.9-7.9-12.3-7.9-12.1 0-21.9 22.3-21.9 38.3 0 10 4.2 13.9 10.3 13.9 4.9-.1 9.2-2.6 16.1-8.4zM166.2 102.5l18.7-86.2-12.8-5 .4-3.8L203.3 0l2.2 1.7-21.3 97.9c-1.5 6.7-.1 7.2 13.1 7.8l.6 3.1c-7.1 4-15 6.8-21.4 6.8-9.9-.1-12.2-6.2-10.3-14.8zM242 105.4c6.7 0 12.9-2.5 18.9-7l2.6 2.4c-6.3 9.7-16.4 16.4-29.9 16.4-18 0-28.4-11.1-28.4-27 0-23.8 19.2-47.5 42.9-47.5 13.8 0 21.7 7 21.7 16.4 0 16.6-19.5 24.9-46.9 23.9-.8 14.5 5.7 22.4 19.1 22.4zm11.8-48.2c0-5.2-3.1-8.5-7.9-8.5-9.2 0-19.4 12.4-22.3 28.7 20.7 0 30.2-8.2 30.2-20.2zM269.2 101.4c0-6 4.3-10.4 9-10.4 6.5 0 10.7 6.4 9.2 16.6 3.6 2.1 7.7 3.2 12.1 3.2 6.7 0 11.6-4.2 11.6-10.4 0-5-2.5-8.1-11.3-12.7l-5.4-2.8c-9-4.5-15.2-8.9-15.2-18.7 0-12 11.7-23.4 29.4-23.4 14.6 0 22.3 7 22.3 13.6 0 5.3-3.3 8.6-7.9 8.6-5.8 0-10.6-5.4-11.7-14.3-1.9-.7-4.3-1.3-6.1-1.3-6.1 0-10.9 4.7-10.9 9.9 0 4.9 3.1 7.5 11.1 11.7l5.4 2.9c10.3 5.4 15.5 10 15.5 19.4 0 12.5-11.1 23.9-28.8 23.9-16.8 0-28.3-6.7-28.3-15.8zM364.5 112.4l16-3.3 17.1-81.3-14.6-3.2 1.1-4.9H432c21.6 0 32.9 7.7 32.9 21.6 0 13.8-10.3 24.9-32.7 27.8l-.4 1.9c10.2 3.1 13.5 7.4 15.5 17.3 2.1 8.6 3.6 15.3 6.7 18.8 2.5 2.9 5.6 4.2 11.4 5.3l-1.1 4.9h-18c-10.9 0-13.5-3.5-16.4-16.7l-3.6-15.9c-1.9-8.8-5-11.1-13.1-11.1h-4.9l-7.4 35.6 14.3 3.2-1.1 4.9h-50.5l.9-4.9zm54.1-45.9c16.8-.3 25.1-12.4 25.1-24.8 0-10-5.8-14.9-18.4-15-1.8 0-6 .1-7.1.4l-8.5 39.5 8.9-.1zM506.3 107.3c6.7 0 12.9-2.5 18.9-7l2.6 2.4c-6.3 9.7-16.4 16.4-29.9 16.4-18 0-28.4-11.1-28.4-27 0-23.8 19.2-47.5 42.9-47.5 13.8 0 21.7 7 21.7 16.4 0 16.6-19.5 24.9-46.9 23.9-.8 14.4 5.7 22.4 19.1 22.4zm11.8-48.2c0-5.2-3.1-8.5-7.9-8.5-9.2 0-19.4 12.4-22.3 28.7 20.7 0 30.2-8.2 30.2-20.2zM522.1 145.4l11-3.9 17.7-81.3-11.7-5 .4-3.8 29.4-7.7 2.2 1.7-4.1 13.7 1.5.4c7.9-8.6 14.9-14.9 24.9-14.9 10.7 0 19.5 8.9 19.5 23.5 0 26.9-24.5 51-49 51-2.8 0-6.1-.3-8.2-.7l-5 23.1 11.3 4-.8 4.3H521l1.1-4.4zm72-72.4c0-10.4-4.6-15.2-11-15.2-5 0-10 3.2-16.2 8.5l-8.2 37.5c4 4 8.8 6.3 14.2 6.3 12-.1 21.2-20.7 21.2-37.1zM623.1 92.6l7.7-32.7-11.4-4.7.3-3.8 29.4-7.7 2.4 1.7-10.4 45.3c-2.4 10.2.1 15.2 7.7 15.2 4.9 0 10.2-2.8 18.5-8.9l7.9-36.9-11.3-4.9v-3.8l29.7-7.7 2.2 1.7-12.1 55.8c-1.5 6.7-.4 7.5 12.7 7.9l.6 3.1c-6.8 4-14.2 6.8-20.7 6.8-9.7 0-11-7.4-9.5-15.3l-1.5-.3c-9.9 9.1-18.7 15.6-27.7 15.6-14 .1-18.1-11-14.5-26.4zM702.8 113l20.5-94.8-12.8-5 .4-3.8 30.8-7.5 2.2 1.7-11.6 52.9 1.5.3c7.1-7.2 14.2-12.1 22.8-12.1 10.9 0 19.6 8.9 19.6 23.5 0 26.9-24.5 51-49 51-9.6-.1-17.7-2.8-24.4-6.2zm54.8-40c0-10.4-4.5-15.9-11.8-15.9-4.9 0-10 3.1-15 7.5l-8.5 39.1c4 4 8.8 6.3 14.2 6.3 11.9 0 21.1-20.6 21.1-37zM784 104.3l18.7-86.2-12.8-5 .4-3.8L821 1.9l2.2 1.7-21.2 97.8c-1.5 6.7-.1 7.2 13.1 7.8l.6 3.1c-7.1 4-15 6.8-21.4 6.8-9.9 0-12.2-6.1-10.3-14.8zM827.3 104.3l10.3-44.1-12.4-5 .4-3.8 30.5-7.7 2.2 1.7-13.1 56c-1.7 6.7-.1 7.4 13.2 7.8l.6 3.1c-7.7 4.3-15 6.8-21.7 6.8-9.9 0-12.1-6.1-10-14.8zm16.3-84.8c0-7.4 5.6-15.6 13.5-15.6 5 0 8.9 3.3 8.9 9.7 0 7.2-5.6 15.6-13.5 15.6-5 .1-8.9-3.3-8.9-9.7zM867 90.8c0-23.1 19.8-46.2 43.9-46.2 12.7 0 19.1 7.2 19.1 14.8 0 6-4.2 10.6-9.5 10.6-6.4 0-10-4.7-10-11.7 0-2.6.6-5.4 1.3-7.9-14.9 1-25.8 18.8-25.8 37.7 0 13.2 7.7 19.2 17.4 19.2 6.5 0 11.4-2.5 18.1-7.2l2.6 2.4c-5.8 9.6-15.9 16.7-29.1 16.7-16.3-.1-28-11-28-28.4z"/></svg>