<?xml version="1.0" encoding="utf-8"?>
<svg version="1.1" id="text" xmlns="http://www.w3.org/2000/svg" xmlns:xlink="http://www.w3.org/1999/xlink" x="0px" y="0px"
	 viewBox="0 0 929.9 149.9" style="enable-background:new 0 0 929.9 149.9;" xml:space="preserve">
<g id="text">
	<path class="st0" d="M6.1,82l5.6-0.1c4.6,21.9,13.6,29.2,26.7,29.2c10.4,0,16.7-7.7,16.7-17c0-9.6-5.6-13.9-18.2-21.2
		C25.5,66.3,16,59.3,16,45.1c0-16.6,13.9-29.2,32.9-29.2c8.5,0,15.7,2.2,21.2,5.7l6-5.4l4.7,0.1l-4.6,30.8l-5.4,0.3
		c-4.6-17.4-11.1-24.8-21.4-24.8c-9.3,0-15.5,6.3-15.5,15.6c0,8.8,5.3,12.4,18.1,19.6c12.3,7.2,21,13.8,21,28
		c0,19.9-17,31.7-35.2,31.7c-10.9,0-20.7-2.8-27.2-6.3l-5.7,5.6L0,116.7L6.1,82z"/>
	<path class="st0" d="M82.7,96.1c0-29,27.3-53.3,47.2-53.3c6.5,0,10.3,1.5,15,4l8.2-7.5l3.9,1.4L144.2,99c-1.4,7-0.8,8.2,12.7,8.4
		l0.6,3.1c-6.8,4-13.9,6.8-20.6,6.8c-8.5,0-11.1-5.2-9.7-13.8l-1.5-0.4c-8.9,9-15,14.2-24.1,14.2C90.8,117.2,82.7,109.3,82.7,96.1z
		 M127.7,95.7l7.8-35.9c-3.5-4.9-7.9-7.9-12.3-7.9c-12.1,0-21.9,22.3-21.9,38.3c0,10,4.2,13.9,10.3,13.9
		C116.5,104,120.8,101.5,127.7,95.7z"/>
	<path class="st0" d="M166.2,102.5l18.7-86.2l-12.8-5l0.4-3.8L203.3,0l2.2,1.7l-21.3,97.9c-1.5,6.7-0.1,7.2,13.1,7.8l0.6,3.1
		c-7.1,4-15,6.8-21.4,6.8C166.6,117.2,164.3,111.1,166.2,102.5z"/>
	<path class="st0" d="M242,105.4c6.7,0,12.9-2.5,18.9-7l2.6,2.4c-6.3,9.7-16.4,16.4-29.9,16.4c-18,0-28.4-11.1-28.4-27
		c0-23.8,19.2-47.5,42.9-47.5c13.8,0,21.7,7,21.7,16.4c0,16.6-19.5,24.9-46.9,23.9C222.1,97.5,228.6,105.4,242,105.4z M253.8,57.2
		c0-5.2-3.1-8.5-7.9-8.5c-9.2,0-19.4,12.4-22.3,28.7C244.3,77.4,253.8,69.2,253.8,57.2z"/>
	<path class="st0" d="M269.2,101.4c0-6,4.3-10.4,9-10.4c6.5,0,10.7,6.4,9.2,16.6c3.6,2.1,7.7,3.2,12.1,3.2c6.7,0,11.6-4.2,11.6-10.4
		c0-5-2.5-8.1-11.3-12.7l-5.4-2.8c-9-4.5-15.2-8.9-15.2-18.7c0-12,11.7-23.4,29.4-23.4c14.6,0,22.3,7,22.3,13.6
		c0,5.3-3.3,8.6-7.9,8.6c-5.8,0-10.6-5.4-11.7-14.3c-1.9-0.7-4.3-1.3-6.1-1.3c-6.1,0-10.9,4.7-10.9,9.9c0,4.9,3.1,7.5,11.1,11.7
		l5.4,2.9c10.3,5.4,15.5,10,15.5,19.4c0,12.5-11.1,23.9-28.8,23.9C280.7,117.2,269.2,110.5,269.2,101.4z"/>
	<path class="st0" d="M364.5,112.4l16-3.3l17.1-81.3l-14.6-3.2l1.1-4.9h47.9c21.6,0,32.9,7.7,32.9,21.6c0,13.8-10.3,24.9-32.7,27.8
		l-0.4,1.9c10.2,3.1,13.5,7.4,15.5,17.3c2.1,8.6,3.6,15.3,6.7,18.8c2.5,2.9,5.6,4.2,11.4,5.3l-1.1,4.9h-18
		c-10.9,0-13.5-3.5-16.4-16.7l-3.6-15.9c-1.9-8.8-5-11.1-13.1-11.1h-4.9l-7.4,35.6l14.3,3.2l-1.1,4.9h-50.5L364.5,112.4z
		 M418.6,66.5c16.8-0.3,25.1-12.4,25.1-24.8c0-10-5.8-14.9-18.4-15c-1.8,0-6,0.1-7.1,0.4l-8.5,39.5L418.6,66.5z"/>
	<path class="st0" d="M506.3,107.3c6.7,0,12.9-2.5,18.9-7l2.6,2.4c-6.3,9.7-16.4,16.4-29.9,16.4c-18,0-28.4-11.1-28.4-27
		c0-23.8,19.2-47.5,42.9-47.5c13.8,0,21.7,7,21.7,16.4c0,16.6-19.5,24.9-46.9,23.9C486.4,99.3,492.9,107.3,506.3,107.3z M518.1,59.1
		c0-5.2-3.1-8.5-7.9-8.5c-9.2,0-19.4,12.4-22.3,28.7C508.6,79.3,518.1,71.1,518.1,59.1z"/>
	<path class="st0" d="M522.1,145.4l11-3.9l17.7-81.3l-11.7-5l0.4-3.8l29.4-7.7l2.2,1.7L567,59.1l1.5,0.4
		c7.9-8.6,14.9-14.9,24.9-14.9c10.7,0,19.5,8.9,19.5,23.5c0,26.9-24.5,51-49,51c-2.8,0-6.1-0.3-8.2-0.7l-5,23.1l11.3,4l-0.8,4.3H521
		L522.1,145.4z M594.1,73c0-10.4-4.6-15.2-11-15.2c-5,0-10,3.2-16.2,8.5l-8.2,37.5c4,4,8.8,6.3,14.2,6.3
		C584.9,110,594.1,89.4,594.1,73z"/>
	<path class="st0" d="M623.1,92.6l7.7-32.7l-11.4-4.7l0.3-3.8l29.4-7.7l2.4,1.7l-10.4,45.3c-2.4,10.2,0.1,15.2,7.7,15.2
		c4.9,0,10.2-2.8,18.5-8.9l7.9-36.9l-11.3-4.9v-3.8l29.7-7.7l2.2,1.7l-12.1,55.8c-1.5,6.7-0.4,7.5,12.7,7.9l0.6,3.1
		c-6.8,4-14.2,6.8-20.7,6.8c-9.7,0-11-7.4-9.5-15.3l-1.5-0.3c-9.9,9.1-18.7,15.6-27.7,15.6C623.6,119.1,619.5,108,623.1,92.6z"/>
	<path class="st0" d="M702.8,113l20.5-94.8l-12.8-5l0.4-3.8l30.8-7.5l2.2,1.7l-11.6,52.9l1.5,0.3c7.1-7.2,14.2-12.1,22.8-12.1
		c10.9,0,19.6,8.9,19.6,23.5c0,26.9-24.5,51-49,51C717.6,119.1,709.5,116.4,702.8,113z M757.6,73c0-10.4-4.5-15.9-11.8-15.9
		c-4.9,0-10,3.1-15,7.5l-8.5,39.1c4,4,8.8,6.3,14.2,6.3C748.4,110,757.6,89.4,757.6,73z"/>
	<path class="st0" d="M784,104.3l18.7-86.2l-12.8-5l0.4-3.8L821,1.9l2.2,1.7L802,101.4c-1.5,6.7-0.1,7.2,13.1,7.8l0.6,3.1
		c-7.1,4-15,6.8-21.4,6.8C784.4,119.1,782.1,113,784,104.3z"/>
	<path class="st0" d="M827.3,104.3l10.3-44.1l-12.4-5l0.4-3.8l30.5-7.7l2.2,1.7l-13.1,56c-1.7,6.7-0.1,7.4,13.2,7.8l0.6,3.1
		c-7.7,4.3-15,6.8-21.7,6.8C827.4,119.1,825.2,113,827.3,104.3z M843.6,19.5c0-7.4,5.6-15.6,13.5-15.6c5,0,8.9,3.3,8.9,9.7
		c0,7.2-5.6,15.6-13.5,15.6C847.5,29.3,843.6,25.9,843.6,19.5z"/>
	<path class="st0" d="M867,90.8c0-23.1,19.8-46.2,43.9-46.2c12.7,0,19.1,7.2,19.1,14.8c0,6-4.2,10.6-9.5,10.6c-6.4,0-10-4.7-10-11.7
		c0-2.6,0.6-5.4,1.3-7.9c-14.9,1-25.8,18.8-25.8,37.7c0,13.2,7.7,19.2,17.4,19.2c6.5,0,11.4-2.5,18.1-7.2l2.6,2.4
		c-5.8,9.6-15.9,16.7-29.1,16.7C878.7,119.1,867,108.2,867,90.8z"/>
</g>
</svg>
