<?xml version="1.0" encoding="utf-8"?>
<svg version="1.1" xmlns="http://www.w3.org/2000/svg" xmlns:xlink="http://www.w3.org/1999/xlink" x="0px" y="0px"
	 viewBox="0 0 801.2 801.2" style="enable-background:new 0 0 801.2 801.2;" xml:space="preserve">
<style type="text/css">
	.st0{fill:#959A90;}
	.st1{fill:#F4F7F2;}
</style>
<g id="badge">
	<circle class="st0" cx="400.9" cy="400.6" r="400.6"/>
</g>
<g id="outline">
	<path class="st1" d="M768.5,437c-18.8,185.4-175.8,330.6-366.1,330.6C212.1,767.6,55,622.3,36.4,436.8l-2.7,0.4
		C52.5,624,210.7,770.3,402.5,770.3c191.6,0,349.8-146.2,368.8-332.9L768.5,437z"/>
	<path class="st1" d="M36.4,362.6C55,177,212.1,31.7,402.5,31.7c190.3,0,347.3,145.2,366.1,330.6l2.7-0.4
		C752.2,175.2,594.1,29,402.5,29C210.7,29,52.5,175.3,33.7,362.2L36.4,362.6z"/>
	<path class="st1" d="M128.4,376.9c11.6-141,130.1-252.3,274.1-252.3c143.9,0,262.3,111.1,274,252l2.7-0.4
		C667.3,234,547.7,121.9,402.5,121.9c-145.3,0-265,112.2-276.8,254.6L128.4,376.9z"/>
	<path class="st1" d="M676.5,422.6c-11.7,140.9-130.1,252-274,252c-144,0-262.5-111.2-274.1-252.3l-2.7,0.4
		c11.8,142.3,131.4,254.6,276.8,254.6c145.3,0,264.8-112.1,276.8-254.3L676.5,422.6z"/>
</g>
<g id="text">
	<path class="st1" d="M137.1,565c0.2-2.5-0.9-5.4-1.9-7.2c-1.2-2.1-2.6-3.1-4.9-1.8c-4.5,2.6,6.1,14.5-4.5,20.8
		c-3.4,2-6.7,1.8-9.3,0.5c-2.5-1.2-4.8-3.5-6.5-6.4c-1.8-3.1-3.5-7.7-2.8-11.4l7,0.4c-0.4,2.8,0.6,6,1.9,8.2c1.2,2,2.7,3.3,5.2,1.8
		c5-3-5.8-14.7,4.7-20.9c3.1-1.8,5.9-1.6,8.5-0.5c2.8,1.2,5.1,3.4,6.8,6.3c1.7,2.8,3.2,7,2.7,10.3L137.1,565z"/>
	<path class="st1" d="M162.3,587.3l-5.8,4.1l-5.1-7.1l-21.9,15.6l-4.6-6.5l21.9-15.6l-5-7l5.8-4.1L162.3,587.3z"/>
	<path class="st1" d="M150.4,625.6l3.7-5.6l-7-8.2l-6.1,2.8l-5.3-6.2l32.7-14l6.2,7.2L155.8,632L150.4,625.6z M165.4,603.3L153,609
		l4.8,5.6L165.4,603.3z"/>
	<path class="st1" d="M186.3,614.2l-5.4,13.2l13.2-5.7l6.5,6.3l-22.5,7.8l-8.8,9.1l-5.7-5.6l8.8-9.1l7.5-22.5L186.3,614.2z"/>
	<path class="st1" d="M228.6,649.9l-4.2,5.7l-10-7.5l-4.2,5.6l9.1,6.8l-4.2,5.6l-9.1-6.8l-7.7,10.2l-6.4-4.8l20.4-27.2L228.6,649.9z
		"/>
	<path class="st1" d="M238,692.2c-3.2,0.7-6.8,0.3-11.3-2.4c-4.4-2.7-6.6-5.7-7.3-8.8c-0.9-4.1,0.6-8.4,3.8-13.7
		c3.2-5.2,6.5-9,11-10.1c3.1-0.8,6.8-0.3,11.3,2.4c4.5,2.7,6.6,5.7,7.3,8.8c1,4-0.6,8.5-3.8,13.7C245.8,687.4,242.5,691,238,692.2z
		 M244.9,669.1c-0.2-1.3-1.2-2.6-3-3.7c-1.9-1.1-3.6-1.4-5.1-0.9c-1.9,0.7-3.6,2.6-6.2,6.9c-2.5,4.2-3.7,6.9-3.3,8.9
		c0.2,1.3,1.2,2.6,3,3.7c1.9,1.2,3.6,1.4,5.1,0.9c1.9-0.7,3.6-2.6,6.2-6.9C244.2,673.7,245.2,671,244.9,669.1z"/>
	<path class="st1" d="M275.6,676.4c2.9,1.3,5.1,2.9,6.5,5c1.4,2.2,1.8,4.9,0.1,8.7c-2,4.2-5.2,6.7-9.8,5.8c3.5,2.5,2.9,6.9-0.3,16.3
		l-7.6-3.5c2.7-8.8,3.1-11.3,0.3-12.5l-4.1-1.9l-4.9,10.4l-7.2-3.4l14.3-30.8L275.6,676.4z M263.6,688.2l3.3,1.5
		c3.4,1.6,5.6,1.7,7.4-2.2c0.7-1.5,0.8-2.4,0.5-3.3c-0.3-0.7-1-1.2-2.4-1.9l-5-2.3L263.6,688.2z"/>
	<path class="st1" d="M324.3,694.1l-2.1,6.8l-8.3-2.6l-8,25.7l-7.6-2.4l8-25.7l-8.3-2.6l2.1-6.8L324.3,694.1z"/>
	<path class="st1" d="M336.5,696.9l-2.6,12.8l10.5,2.1L347,699l7.8,1.6l-6.8,33.3l-7.8-1.6l2.8-13.5l-10.5-2.1l-2.8,13.5l-7.8-1.6
		l6.8-33.3L336.5,696.9z"/>
	<path class="st1" d="M382.4,703.6l-0.7,6.6l-12.5-1.3l-0.7,6.8l11.4,1.2l-0.7,6.6l-11.4-1.2l-0.7,7.3l12.7,1.3l-0.7,6.6l-20.5-2.1
		l3.4-33.8L382.4,703.6z"/>
	<path class="st1" d="M426,734.4c-2.2,2.4-5.6,4-10.8,4.2c-5.1,0.2-8.6-1.1-10.9-3.3c-3-2.9-4.1-7.4-4.4-13.5
		c-0.2-6.1,0.5-11.1,3.6-14.4c2.2-2.3,5.5-4,10.7-4.2c5.2-0.2,8.7,1.1,11,3.3c3,2.8,4.1,7.4,4.4,13.5
		C429.9,726.2,429.1,731,426,734.4z M419.1,711.4c-0.9-0.9-2.5-1.5-4.5-1.5c-2.2,0.1-3.8,0.8-4.7,2.1c-1.2,1.6-1.6,4.1-1.4,9.2
		c0.2,4.9,0.7,7.8,2.1,9.3c0.9,1,2.4,1.5,4.5,1.4c2.3-0.1,3.8-0.8,4.7-2.1c1.2-1.6,1.6-4.2,1.4-9.2
		C421,715.6,420.5,712.8,419.1,711.4z"/>
	<path class="st1" d="M447.9,700.8c3.1-0.4,6.1-0.3,8.5,1c2.4,1.4,4.3,3.9,5,8.8c0.7,4.7-0.2,7.9-2.2,10.1c-1.8,1.9-4.4,2.9-8,3.5
		l-4.8,0.7l1.5,10.3l-7.9,1.2l-4.9-33.6L447.9,700.8z M445.4,718l4.6-0.7c1.6-0.2,2.4-0.7,2.9-1.3c0.6-0.8,0.6-2.1,0.3-4.1
		c-0.4-2.5-0.9-3.5-1.7-4c-0.8-0.5-1.7-0.5-3.2-0.3l-4.4,0.6L445.4,718z"/>
	<path class="st1" d="M477.8,694.7c3-0.8,6-1,8.5,0.1c2.6,1.1,4.7,3.4,5.9,8.3c1.2,4.6,0.6,7.9-1.2,10.2c-1.6,2.1-4.1,3.4-7.7,4.3
		l-4.7,1.2l2.5,10.1l-7.7,1.9l-8.3-33L477.8,694.7z M477,712.1l4.5-1.1c1.5-0.4,2.4-0.9,2.8-1.6c0.5-0.8,0.4-2.2-0.1-4.1
		c-0.6-2.4-1.3-3.4-2.1-3.8c-0.8-0.4-1.8-0.3-3.2,0.1l-4.3,1.1L477,712.1z"/>
	<path class="st1" d="M528.1,710.8c-1.4,2.9-4.1,5.5-8.9,7.3c-4.8,1.8-8.5,1.6-11.4,0.2c-3.8-1.8-6.2-5.7-8.3-11.5
		c-2.1-5.7-2.9-10.7-1-14.8c1.3-2.9,4-5.5,8.9-7.3c4.9-1.8,8.6-1.6,11.5-0.2c3.7,1.8,6.2,5.8,8.3,11.5
		C529.2,701.8,530,706.6,528.1,710.8z M514.4,691c-1.2-0.6-2.8-0.7-4.8,0c-2.1,0.8-3.3,1.9-3.9,3.4c-0.7,1.9-0.2,4.4,1.5,9.2
		c1.7,4.6,3.1,7.2,4.9,8.2c1.2,0.6,2.8,0.7,4.7-0.1c2.1-0.8,3.3-1.9,3.9-3.4c0.7-1.9,0.2-4.5-1.5-9.1
		C517.5,694.4,516.1,692,514.4,691z"/>
	<path class="st1" d="M539.2,671.6c2.8-1.4,5.5-2.2,8-1.9c2.6,0.3,5,1.6,6.8,5.4c2.1,4.2,2,8.2-1.6,11.3c4.2-1.2,7.2,2,12.5,10.4
		l-7.5,3.7c-5.2-7.7-6.8-9.5-9.6-8.1l-4,2l5.1,10.3l-7.1,3.5l-15.1-30.4L539.2,671.6z M540.9,688.4l3.2-1.6c3.4-1.7,4.8-3.3,2.9-7.1
		c-0.7-1.5-1.4-2.2-2.2-2.4c-0.8-0.2-1.6,0-3,0.7l-4.9,2.4L540.9,688.4z"/>
	<path class="st1" d="M573.7,651.7l3.7,6l-7.4,4.6l14.1,22.9l-6.8,4.2l-14.1-22.9l-7.4,4.6l-3.7-6L573.7,651.7z"/>
	<path class="st1" d="M583.7,644.3l13.3,17.3c2.2,2.9,3.8,4.4,7.8,1.3c3.8-2.9,3-4.8,0.6-7.8l-13.3-17.3l6.3-4.8l13.2,17.3
		c1.9,2.5,3.4,5.2,3.4,8.1c0,3.2-1.8,6.8-6.3,10.3c-4.4,3.4-8,4.1-10.7,3.5c-3.1-0.7-5.3-3-7.2-5.5l-13.4-17.5L583.7,644.3z"/>
	<path class="st1" d="M611.4,621.2l23.9,9.1L619,613.9l5.5-5.3l23.6,24.4l-7.2,7l-23.9-9.1l16.3,16.5l-5.5,5.3l-23.6-24.4
		L611.4,621.2z"/>
	<path class="st1" d="M634.7,596.6l25.6,22.3l-5.2,6l-25.6-22.3L634.7,596.6z"/>
	<path class="st1" d="M653.4,572.6l5.7,4.3l-5.2,7l21.5,16.1l-4.8,6.4L649,590.2l-5.2,6.9l-5.7-4.3L653.4,572.6z"/>
	<path class="st1" d="M660.3,561.6l28.5,18.4l-4.3,6.7L656,568.3L660.3,561.6z"/>
	<path class="st1" d="M674.3,537.1l5.8,3.2l-6,11l6,3.3l5.5-10l5.8,3.2l-5.5,10l6.4,3.5l6.2-11.2l5.8,3.2l-9.9,18l-29.8-16.3
		L674.3,537.1z"/>
	<path class="st1" d="M691.6,518.6c-2.1,1.3-3.8,3.9-4.7,5.7c-1,2.2-1,3.9,1.4,5c4.7,2.1,8.2-13.4,19.5-8.5c3.6,1.6,5.4,4.4,5.9,7.3
		c0.5,2.7-0.1,6-1.4,9c-1.4,3.3-4.2,7.4-7.6,8.9l-3.8-6c2.5-1.3,4.5-4,5.5-6.4c0.9-2.1,1.2-4.1-1.5-5.3c-5.4-2.4-8.6,13.3-19.6,8.4
		c-3.3-1.4-4.8-3.8-5.4-6.6c-0.7-3-0.2-6.1,1.1-9.2c1.3-3,3.8-6.7,6.8-8.2L691.6,518.6z"/>
	<path class="st1" d="M159.6,207.9c1.1,4.6,0.3,8.7-2.6,12.7c-2.6,3.6-5.4,5.1-8.1,5.5c-4.6,0.7-9.3-1.9-13.5-4.9
		c-4.6-3.3-8.3-7.1-9.2-11.6c-0.6-3,0.1-6.5,2.9-10.5c2.1-3,5.1-5.6,9-6.1l1.9,6.7c-2.3,0.4-4.2,1.9-5.4,3.7c-1.4,2-1.5,3.5-1,4.7
		c0.6,1.5,2.2,3.2,6.5,6.3c4.2,3,6.3,4,8,4c1.2,0,2.4-0.5,3.5-2c1.5-2.1,1.8-4.7,1.2-7.5L159.6,207.9z"/>
	<path class="st1" d="M179.7,187.4c0.2,3.2-1,6.8-4.4,10.7c-3.4,3.8-6.8,5.5-10,5.6c-4.2,0.2-8.2-2.1-12.8-6.2
		c-4.6-4-7.6-8-7.9-12.6c-0.2-3.2,0.9-6.8,4.4-10.7c3.5-3.9,6.8-5.5,10-5.6c4.1-0.2,8.2,2.2,12.8,6.2
		C176.4,178.9,179.4,182.8,179.7,187.4z M158.2,176.5c-1.3,0-2.8,0.7-4.2,2.3c-1.5,1.7-2,3.3-1.8,4.9c0.3,2,1.9,4,5.7,7.4
		c3.6,3.2,6.1,4.9,8.2,4.9c1.3,0,2.7-0.7,4.1-2.3c1.5-1.7,2-3.3,1.8-4.9c-0.3-2-2-4-5.7-7.3C162.6,178,160.2,176.4,158.2,176.5z"/>
	<path class="st1" d="M174.8,149.1l18.8,12l-9.4-20.3l7.9-6.9l23.8,24.3l-5.8,5.1L192.9,145l10.6,22.1l-5.5,4.8l-20.5-13.4
		l15.9,19.5l-5.8,5.1l-21-26.8L174.8,149.1z"/>
	<path class="st1" d="M218.8,115.1l3.8,5.5l-10.3,7.1l3.9,5.6l9.4-6.5l3.8,5.5l-9.4,6.5l4.1,6l10.5-7.3l3.7,5.4l-16.9,11.7l-19.3-28
		L218.8,115.1z"/>
	<path class="st1" d="M256.5,94.1l3.3,6.3l-11.1,5.7l3.2,6.3l10.1-5.2l3.2,6.2l-10.1,5.2L261,130l-7.1,3.7l-15.6-30.2L256.5,94.1z"
		/>
	<path class="st1" d="M298.5,110.1c-1.3,3-3.9,5.6-8.8,7.6c-4.8,1.9-8.5,1.8-11.4,0.5c-3.8-1.7-6.3-5.6-8.6-11.2
		c-2.3-5.7-3.2-10.6-1.4-14.8c1.3-2.9,3.9-5.6,8.7-7.5c4.8-1.9,8.5-1.8,11.4-0.5c3.8,1.7,6.4,5.6,8.6,11.3
		C299.4,101,300.3,105.8,298.5,110.1z M284.3,90.7c-1.2-0.6-2.8-0.6-4.8,0.1c-2.1,0.8-3.3,2-3.8,3.5c-0.6,1.9-0.1,4.4,1.8,9.1
		c1.8,4.5,3.3,7.1,5.1,8c1.2,0.6,2.8,0.6,4.7-0.2c2.1-0.8,3.3-2,3.8-3.5c0.6-1.9,0.1-4.5-1.8-9.1C287.5,94,286.1,91.6,284.3,90.7z"
		/>
	<path class="st1" d="M313.6,73.1c3-0.8,5.8-1.1,8.2-0.4c2.5,0.8,4.6,2.6,5.7,6.6c1.2,4.5,0.4,8.4-3.7,10.8
		c4.3-0.4,6.7,3.3,10.3,12.6l-8.1,2.2c-3.6-8.5-4.9-10.6-7.9-9.8l-4.3,1.2l3.1,11.1l-7.7,2.1l-9.1-32.7L313.6,73.1z M312.2,89.9
		l3.5-1c3.7-1,5.3-2.3,4.2-6.5c-0.4-1.6-1-2.4-1.7-2.8c-0.7-0.4-1.6-0.3-3,0.1l-5.3,1.5L312.2,89.9z"/>
	<path class="st1" d="M369,62.7l1,7l-8.6,1.2l3.7,26.6l-7.9,1.1L353.5,72l-8.6,1.2l-1-7L369,62.7z"/>
	<path class="st1" d="M384.9,61.7l0.5,13.1l10.7-0.4l-0.5-13.1l7.9-0.3l1.2,33.9l-7.9,0.3l-0.5-13.8l-10.7,0.4l0.5,13.8l-8,0.3
		L377,62L384.9,61.7z"/>
	<path class="st1" d="M434.8,62.6l-0.4,6.6l-12.5-0.8l-0.4,6.8l11.4,0.7l-0.4,6.6L421,81.8l-0.5,7.3l12.8,0.8l-0.4,6.6l-20.5-1.3
		l2.2-33.9L434.8,62.6z"/>
	<path class="st1" d="M472.7,76.8c-1.8-1.8-4.6-2.9-6.6-3.3c-2.4-0.5-4-0.1-4.5,2.5c-1,5.1,14.9,5,12.6,17.1
		c-0.8,3.9-3.1,6.2-5.8,7.3c-2.6,1.1-5.9,1.3-9.1,0.6c-3.5-0.7-8.1-2.5-10.4-5.5l5-5c1.8,2.2,4.9,3.5,7.4,4c2.3,0.4,4.3,0.2,4.8-2.7
		c1.1-5.7-14.8-5.4-12.5-17.3c0.7-3.5,2.7-5.5,5.2-6.7c2.8-1.3,5.9-1.6,9.2-0.9c3.2,0.6,7.3,2.2,9.5,4.8L472.7,76.8z"/>
	<path class="st1" d="M501.6,108.3c-2.9,1.5-6.6,2-11.6,0.5c-4.9-1.5-7.8-3.8-9.2-6.7c-1.9-3.7-1.5-8.3,0.3-14.2
		c1.8-5.8,4.1-10.3,8.1-12.5c2.8-1.5,6.5-2,11.5-0.5c5,1.5,7.8,3.9,9.3,6.7c1.9,3.7,1.5,8.4-0.3,14.2
		C507.9,101.8,505.6,106.1,501.6,108.3z M502.5,84.3c-0.6-1.2-1.8-2.3-3.8-2.9c-2.1-0.6-3.8-0.5-5.2,0.4c-1.7,1.1-2.8,3.4-4.3,8.3
		c-1.4,4.7-1.9,7.6-1,9.5c0.6,1.2,1.8,2.2,3.8,2.8c2.2,0.7,3.8,0.5,5.2-0.4c1.7-1.1,2.8-3.5,4.3-8.2C503,88.9,503.4,86.1,502.5,84.3
		z"/>
	<path class="st1" d="M530.8,86.5l-10.3,24.8l10.8,4.5l-2.7,6.5l-18.1-7.5l13-31.4L530.8,86.5z"/>
	<path class="st1" d="M555.8,97.9l-10.2,19.3c-1.7,3.2-2.5,5.3,2,7.6c4.3,2.3,5.6,0.7,7.4-2.7l10.2-19.3l7,3.7l-10.2,19.2
		c-1.5,2.8-3.3,5.3-6,6.5c-2.9,1.3-7,1.2-12-1.5c-4.9-2.6-7-5.6-7.6-8.3c-0.7-3.1,0.5-6.1,2-8.9l10.3-19.4L555.8,97.9z"/>
	<path class="st1" d="M600.3,125l-4,5.9l-7.2-4.9l-15.2,22.2l-6.6-4.5l15.1-22.2l-7.2-4.9l4-5.8L600.3,125z"/>
	<path class="st1" d="M612.4,134.2l-20.7,26.9l-6.3-4.9l20.7-26.9L612.4,134.2z"/>
	<path class="st1" d="M617.8,179.9c-3.2,0.1-6.8-1-10.6-4.6c-3.8-3.4-5.4-6.8-5.4-10c-0.1-4.2,2.2-8.2,6.3-12.7
		c4.1-4.5,8.1-7.5,12.7-7.7c3.2-0.1,6.7,1,10.6,4.5c3.9,3.5,5.4,6.9,5.5,10.1c0.2,4.1-2.3,8.2-6.4,12.7
		C626.4,176.7,622.4,179.6,617.8,179.9z M629,158.6c0-1.3-0.7-2.8-2.2-4.2c-1.6-1.5-3.2-2.1-4.8-1.9c-2,0.3-4,1.9-7.4,5.6
		c-3.3,3.6-5,6-5,8.1c0,1.3,0.7,2.8,2.3,4.2c1.7,1.5,3.2,2.1,4.8,1.9c2-0.3,4.1-1.9,7.4-5.6C627.5,162.9,629,160.6,629,158.6z"/>
	<path class="st1" d="M655.3,174.6L644.9,198l17.3-15.4l5,5.8l-25.6,22.3L635,203l10.4-23.4L628,195l-5-5.8l25.6-22.3L655.3,174.6z"
		/>
	<path class="st1" d="M677,215.8c0-2.5-1.3-5.3-2.5-7c-1.4-2-2.8-2.9-5-1.4c-4.2,3,7.2,14-2.8,21.1c-3.2,2.3-6.6,2.3-9.3,1.3
		c-2.6-1-5.1-3.2-7-5.9c-2.1-2.9-4.1-7.4-3.7-11.1l7.1-0.1c-0.2,2.8,1.1,6,2.6,8c1.3,1.9,2.9,3.1,5.3,1.4c4.8-3.4-6.9-14.2,3-21.2
		c2.9-2.1,5.7-2.1,8.4-1.2c2.9,1,5.3,2.9,7.3,5.7c1.9,2.7,3.7,6.7,3.5,10.1L677,215.8z"/>
</g>
<g id="crosses">
	<g>
		<path class="st1" d="M81,404.6l-13.3,13.2l-5-5.1L76,399.6l-13.3-13.1l5-5L81,394.7l13.3-13.2l5,5L86,399.6l13.3,13.1l-4.9,5
			L81,404.6z"/>
	</g>
	<g>
		<path class="st1" d="M723.9,404.6l-13.3,13.2l-5-5.1l13.3-13.1l-13.3-13.1l5-5l13.3,13.2l13.3-13.2l5,5l-13.3,13.1l13.3,13.1
			l-4.9,5L723.9,404.6z"/>
	</g>
</g>
<g id="island">
		<path class="st1" d="
		M581,381.6c-3,0.1-5.3,0.9-7.8,0.5c-4.8-0.8-5.3-2-7.4-3.8c-2.4-2-4.8-4-6.8-5.9c-1.4-1.3-3.4-1.4-4.1-2.7l0,0l-1.1-2.6
		c-1.1-2.7-3.3-3.4-2.9-5.2c0.2-0.7,0.9-2,1.1-2.7c0.2-1,0.5-1.7,0.1-2.4c-0.5-0.9-0.7-2.9-2-3.5c-2.3-1-1.4-2.2-1.7-3.4
		c-0.2-0.7-0.3-1.6-0.5-2.6c-0.1-0.7-1.3-1.8-1.4-2.5c-0.2-1.1,0.4-2.6,0.4-3.5c-0.1-1.6,0.9-3.1,0.1-3.4c-0.6-0.2-1.4,0.1-2,0
		c-1-0.1-1.5,0-1.7-0.6c-0.9-2.1,0.4-2-0.1-2.8c-0.3-0.5-1.1-1-1.5-1.6c-0.4-0.6,0-2.1-0.3-2.7c-0.4-0.7-1.2-1.3-1.6-2
		c-1.2-1.9-0.9-2.6-1.4-3.2c-0.8-1-1.3-0.8-1.8-1.3c-1.4-1.3-2.7-3.6-5.1-5c-2-1.1-1-2-1.9-2.6c-2.5-1.5-1.8-2.1-2.8-3.2
		c-0.7-0.8-2.1-1.7-2.7-2.3c-0.7-0.8-0.4-0.8-0.5-1.2c-0.1-0.9-0.1-1.7-0.2-2.6c-0.1-1.3-1.4-2.4-1.8-1.7c-0.5,0.7-1.1,1.9-1.5,1.4
		c-0.6-0.7-1.3-1.3-1.8-1.5c-0.5-0.2-0.8,0.7-1.2,0.7c-1.1,0-1.8-1.6-2.5-1c-0.8,0.6-1.8,1.5-2.4,1.1c-0.7-0.5-1.1-1.6-2-2.2
		c-0.6-0.4-1.4-1.8-2-2c-0.9-0.4-1.1-0.4-1.7-0.5c-1-0.2-0.5-0.8-1-1.4c-0.3-0.3-0.5-1.3-0.8-1.7c-0.3-0.4-1.2-0.6-1.6-1
		c-1.3-1.3-1.6-1.4-1.3-2.2c0.7-2.8,0.3-4-0.9-4.8c-0.5-0.4-0.8-0.6-1.2-0.7c-0.5,0-0.6,1-1.1,1c-2,0.1-4.3-0.3-6.2,0.5
		c-2,0.8-3.7,3.4-5.5,3.2c-1.2-0.1-1.9,0.2-2.1-0.4c-0.3-0.8,0-2.1-0.5-2.7c-0.8-0.9-1.8-0.8-2.3,0.3c-0.5,1.2-0.9,4.1-1.5,4.5
		c-0.9,0.5-2.1,0.6-3.2,1.1c-1.1,0.4-2.2,1.3-2.9,1c-2.1-0.9-3.8-2.1-5.4-3.6c-1.1-1-2-2.8-1.3-3.9c0.8-1.4,4.4-3.6,2.9-4.2
		c-1-0.4-1.8-2-2.7-1.5c-1.5,0.8-2.8,1.8-4.4,1.7c-1.3-0.1-3.4-0.7-3.7-1.9c-0.5-2,0.9-4.8-0.8-5.4c-1.8-0.6-5.3-1.7-5.3-1.7
		s-1.6,1.2-2.5,1.1c-0.9-0.1-2.2-0.7-2.3-1.6c-0.2-1.3,1.6-4.1,0.1-4.6c-1.6-0.6-3.5,0.9-3.1-0.1c0.3-0.5,0.5-2.1-0.8-2
		c-1.2,0.1-3.8,0.1-3.4-1.2c1.1-4.2-1.3-3.4-2.3-4.5c-2.2-2.3-2.8-4.4-2.7-6.2c0.2-2.7,2-1.7,1.9-2.7c-0.1-0.7-0.5-2.1,0.2-2.6
		c0.5-0.3,2.4,0,2.4-0.4c0-0.8-0.4-1.1-0.7-2c-0.1-0.2,0-1.4-0.4-1.8c-0.3-0.3-0.6-0.5-1-0.7c-0.4-0.2-0.5-1.9-0.9-2.1
		c-0.4-0.2-1,0.9-1.4,0.9c-1.1,0-0.9-0.8-1.5-1c-2.6-0.6-2.8,0.9-3,1.8l-0.9,3.4c-0.3,1.1-2.3,0.8-3,0c-0.4-0.4-1.4-1.7-1.7-2.7
		c-0.5-1.6-1-3-1.5-4.7c-0.4-1.3-1.5-2.7-2.8-2.8c-2-0.1-3.9-0.1-5.7-0.7c-1.2-0.4-2.2-1.7-3.4-2.4c-0.9-0.5-1-2.3-1.6-3
		c-1.6-1.7-1.9,0.5-2.8,0.4c-1.2,0-3.1,0.9-5,0.5c-1.3-0.3-2.6-2-3.4-2c-1.1,0-1.4,1.6-2.2,2.2c-1,0.8-2,1.8-3.2,1.5
		c-3.8-0.8-3.7-1.4-5.2-2.6c-1.6-1.3-3.3-2.6-4.9-3.9c-0.7-0.6-1.3-1.6-2.1-2.3c-0.7-0.6-2.1-0.8-2.3-1.8c-0.6-3.3-2.5-1.4-3.4-2.3
		c-0.6-0.7-0.8-1.9-1.6-2.6c-0.6-0.5-3.8-0.8-4.4-1.2c-0.7-0.5,1.1-1.5,0.8-1.8c-0.7-0.8-1.8-1.7-2.9-2.2c-1.6-0.7-5-2.5-5.1-1
		l-0.1,2c0,1.2-1.1,0.7-1.7,0.6c-1.5-0.2-2.8-0.3-3.2-1.4c-0.6-1.5-1.1-5.4-2.2-4.3c-1.2,1.2-1.8,3.7-3.1,2.7
		c-0.9-0.7-1.7-0.7-1.7-1.4c0-1.3-0.4-2.6-1.5-2.7c-0.7-0.1-1.4-0.4-2-0.2c-0.9,0.3-1.7,1.2-3,1.4c-0.7,0.1-1.5-1-2.2-1
		c-2.6,0.2-4.7,2.6-3.7,4.1c0.6,1,1.9,1.9,2.2,3.3c0.6,2.5,2.6,4.3,1.2,4.3l-1.5,0.1c-2,0.1-3,0.3-3.7,1.4c-0.8,1.1-0.1,3.3-1.2,4.2
		c-1.1,0.9-2.3,1-3.1,0.5c-0.7-0.4-1.2-1.8-1.9-2.2c-0.6-0.3-1.3-1-2.2-1.1c-0.7-0.1-1.5,0.5-2,0.2c-1.3-0.8-1.8-3.1-3.3-2.9
		c-0.7,0.1-2.2-0.2-3.1-0.1c-1.3,0.2-1.4,0.3-1.9,0.8c-1,1-2.7,3.1-3.8,2.2l-3-2.3c-1.2-0.9-2.8-0.1-3.5-0.8
		c-0.5-0.5-0.9,0.4-1.9,0.4c-0.6,0-2.4-1.6-2.9-1c-0.5,0.7,0.3,2,0.3,3.2c0,1.4-0.7,1.1-0.9,1.8c-0.1,0.6,0.2,1.8-0.5,2.1
		c-0.3,0.1-0.4-0.9-0.7-1c-0.5-0.2-1,0.2-1.2-0.2c-0.4-0.9-0.2-3.3-1.2-2.8c-0.5,0.3-0.6,1.2-1.3,1.5c-0.7,0.3-1.6-0.7-2.3-0.6
		c-1,0.2,0.2,1.2-0.1,1.7c-0.5,1-1.8,0.8-1.8,1.6c0,0.7-0.2,1.2-0.6,1.5c-0.4,0.3-1.1,1.5-1.6,1.5c-1,0-1.5-1.9-2-1.3
		c-0.3,0.4,0.4,1.6,0.6,2.2c0.3,0.9,0.6,1,0.2,1.3c-0.4,0.3-3.2,0.8-3.7,1.2c-0.6,0.4-1.1,1.5-1.6,1.9c-1.8,1.6-2.1,1.5-2.8,2.5
		c-0.5,0.7-1.6,1.2-1.3,2.2c1,2.8-0.1,1.8-1.8,4.6c-1.6,2.5-0.4,0.7-3.6,2.9c0,0-1.7,1.1-2.5,1.7c-0.4,0.3-0.9,1.2-1.4,1.1
		c-2.4-0.7-2.9-1.4-3.5-0.4c-0.8,1.1,0.2,1.9,0.2,2.8c0,1.1-0.4,2.3-1.3,3c-0.4,0.3-1.3,0.4-1.8,0.8c-1.9,1.5-4.2,2.6-3.7,4.3
		c0.2,0.6,0.5,0.8,0.3,1.1c-0.1,0.4-0.2,0.9-0.4,1.2c-1.5,1.6-5,4.6-4.3,6.8c0.6,2,0.3,4.4,1.6,4c0.6-0.2,1.3-1,1.5-0.5
		c0.2,0.6,0.9,1.3,0.5,1.9c-0.2,0.4-0.6,0.8-0.7,1.2c-0.3,1.6,0.8,3.3,2.1,3.6c1.1,0.2,2.4-0.9,3.4-0.7c2.1,0.3,1.6,2.5,1.1,3.7
		c-0.5,1.4-0.1,3.6-1.5,4.1c-0.6,0.2-1.8-0.5-2.6-0.2c-1.5,0.5-2,1.1-2.5,2.1c-0.7,1.5-2.3,3-2,4.6c0.2,1.1,0.9,2.5,0.1,3.1
		c-0.9,0.7-2.9,1-4.1,1.9c-2.1,1.6-3.6,1.8-4.1,3.4c-0.4,1-0.9,2.5-0.2,3.4c1.1,1.4,3.2,4.3,3.2,4.3s1.4,1.5,1.6,2.4
		c0.4,1.6-0.1,3.7-1,5.1c-1.7,2.8-2.8,4-4.8,5.4c-2.7,2-6.1,3.8-8.1,4.3c-1.1,0.3-1.3,0.3-2-0.7c-0.6-1-1.3-2.1-1.9-3.1
		c-0.7-1.1-1.1-1.1-1.9-1.3c-2.8-0.6-6.2-0.6-7.6,0.6c-0.8,0.7-1.3,3.9,0,4.1c1.1,0.1,1.9-0.3,2.4,0.3c1.7,2-0.9,3.2-2.1,4.1
		c-1.2,0.8-2.1,2.1-3.5,2c-1.1-0.1-2.8,0-2.6,1c0.3,1.6,1,3.4-0.2,4.2c-1.1,0.8-2.1,1.8-3.4,2.3c-0.7,0.3-1.9-0.2-2.1,0.5
		c-0.2,0.8,0,2-0.3,3.2c-0.5,1.9-1,2.6-1.9,3.7c-1.5,1.7-1.6,2.8-2.9,2.7c-0.8-0.1-1.6-0.4-2.3-0.4c-0.4,0-0.6,0.4-1.1,0.6
		c-0.3,0.2-1.1,0.1-1.1,0.8c0,0.6,0,1.3,0.4,1.6c1.4,1,3.2,2.4,3.1,3.9c-0.1,1.2-0.3,2.4-1.1,3.7c-1.1,1.6-2.8,3.2-1.7,3.9
		c1.5,0.9,2.7,1.2,3.1,2.4c1.1,3.3,4.9,7,3.2,10c-0.7,1.3-1.2,3.5-2.2,5.2c-0.6,1-1.7,3.5-2.2,4.4c-1.4,2.1-2.4,1.7-1.6,2.7
		c0.5,0.7,1.5,1.6,2,2.3c0.6,0.9,0.1,1.3,0.4,1.9c0.1,0.2,1.3-0.1,1.7,0.5c0.7,1-1.1,0.8-1.1,1.5c0,0.6,0.9,0.7,1.3,1.1
		c0.6,0.6,0.4,1.3,0,1.6c-2,1.3-1.9,4.1-0.4,4.3c1.1,0.1,1.1,0.7,1.3,1.2c0.3,0.7,0.2,1.6,0.6,2.4c0.3,0.6,2.2,1,2.5,1.6
		c0.5,0.8-0.7,1-0.6,1.3c0.2,0.5,1.2,0.6,1.4,1c0.5,1.2,0.1,1.7,0,2.6c-0.1,0.6,0,2.1-1,3.4c-0.5,0.7-0.5,2-0.7,2.7
		c-0.5,2-1.1,2.6-0.3,3.4c0.6,0.6,1.4,1.1,2,1.8c0.4,0.5,0.7,1.1,1.3,1.3c1.1,0.3,2.7,0.5,3.1,1.6c0.9,2.8-0.5,1.5-0.5,2.7
		c0,0.4,0.3,1.1,0.6,1.3c1.7,1.6,3.9,2.8,5.2,4.8c1.3,2,1.2,4.5,1.1,6.6c0,0.5-1.3,0.1-1.3,0.9c0,0.5,0.5,0.8,0.7,1.3
		c0.3,0.6-0.2,1.1,0,1.5c0.2,0.4,1.4,0,1.9,0.4c1.1,0.9,0.7,2.4,0.5,3.7c-0.2,1.1,0.8,1.7,1.3,2.5c0.7,1-0.8,1.8-0.6,2.2
		c0.4,0.9,1.3,1.6,2,2.4c0.8,0.9,0.1,1.8,0.3,2.3c0.3,0.5,1.1,0.4,1.3,0.8c0.2,0.3,0,1.3,0.2,1.6c0.2,0.3,1.2-0.1,1.3,0.2
		c0.3,0.4-0.2,1.1-0.1,1.4c0.2,0.6,0.8,0.3,0.8,0.7c0,1.5,0.5,1.7,0.7,1.3c0.2-0.4,1.1,0.5,1.5,1.1c1.1,1.6,1.8,3.4,2,5.3
		c0.5,3.6-0.2,5.2-2,6.1c-0.6,0.3-1.6,0-2.2,0.4c-0.4,0.3-0.5,0.8-0.8,1.1c-0.5,0.6-1,0.4-1.2,1c-0.4,1.1,0.8,2.2,0.6,3.3
		c-0.2,0.8-0.3,1.8-1,2.3c-0.5,0.4-1.9,0-2.5,0.5c-1.1,0.8-1.4,1.8-2.1,2.5c-0.5,0.4-0.2,1.2-0.9,1.9c-0.2,0.2,0.3,0.7,0.2,1
		c-0.1,0.4,0,1-0.3,1.1c-0.6,0.1-1.2,0.1-1.7,0.4c-2.1,1.5-1,1.7-1.6,2.5c-0.4,0.5-0.1,0.9-0.2,1.5c-0.1,0.8-1.4,1.6-1.1,2.2
		c0.3,0.7,0.9,0.9,1.2,1.5c0.4,0.8,0.5,1.3,0.4,2.7c0,0.4-0.9,0.8-0.9,1.2c0,0.3,0.4,0.6,0.3,0.8c0,0.4,0,0.7,0,1.1
		c0,0.7,1.3,0.6,2.1,0.5c1-0.1,1.2,0.9,2.3,1.9c0.9,0.8,2.1,1.3,2.8,2c0.4,0.4,1.1,1,1,1.5c0,0.3,0.6,0.2,0.9,0.3
		c0.6,0.2,1,0.1,1.5,1c0.4,0.6,0.3,1.4,0.7,1.9c0.8,1,1.3,0.8,1.9,1.5c0.5,0.6-0.3,1.6-0.5,2.2c-0.2,0.6,1.2,0.7,1.7,1.3
		c0.4,0.6,0.5,0.9,0,1.8c-0.2,0.4,0.6,0.6,0.9,0.7c0.8,0.2,1.7,0.4,2.4,0.5c0.3,0,0.6,0.4,0.4,0.8c-0.1,0.4-0.5,0.9-0.3,1.3
		c0.3,0.9,1,0,1.7,2c0.2,0.5-0.4,1.2-0.6,1.6c-0.2,0.4,0.5,0.2,1.2,0.4c0.5,0.2,0.9,0.7,1.2,0.9c0.5,0.3,0.6-0.3,1.7-0.3
		c1.2,0,2.9,0.2,3.9-0.1c0.5-0.2,0.8,0.4,1.6,0.8c0.4,0.2,1,0.1,1.5,0.3c0.4,0.2,0.7,0.7,1,0.9c0.8,0.6,0.7,2.3,0.9,3.2
		c0.1,0.7,0.9,0.7,1.3,1.7c0.2,0.4-0.5,1-0.1,1.5c0.2,0.3,1.5,0.3,1.7,0.5c0.7,0.8,1.4,1.4,1.9,1.8c0.5,0.3,0.3-0.7,1.7-0.5
		c0.6,0.1,1.2,0.5,2.2,0.6c1.2,0.1,4.1-0.6,5.4-0.1c0.8,0.3,0.4,1.2,0.6,2.6c0.1,0.5-0.7,1-1.2,1.6c-0.6,0.7-0.8,1.6-0.5,2.3
		c0.3,0.5,0.4,0.6,0.2,1.7c-0.1,0.4-0.7,0.7-0.9,1.2c-0.3,0.5-0.2,1.2-0.2,1.5c-0.1,0.6,1.3-0.3,2,0.8c0.4,0.6,0.5,1.8,1.2,2
		c0.3,0.1,1.1-1.5,1.4-1.5c0.3,0.1,0.5,0.1,0.7,0.2c0.7,0.2,0.6-0.5,1.6-0.3c0.5,0.1,0.5,0.8,1.1,0.7c0.9-0.2,0.8,0.9,2.1,1.7
		c0.4,0.2,0.2-0.9,1.1-0.9c0.4,0,1.1,0.9,1.6,0.8c0.8-0.1,1.2-0.9,2.9-0.7c0.9,0.1,1.3,1.4,2.3,2.4c0.7,0.7,2.3,0.8,3.1,1.7
		c0.5,0.6,0.8,1.5,1.3,2c0.4,0.4,1.2,0.7,1.6,1c0.5,0.5,0.6,0.6,1.5,0.7c0.7,0,1-0.7,1.7-0.6c0.6,0.1,0.5,0.9,1,0.8
		c0.7-0.1,0.9-0.6,1.3-1.2c0.3-0.4,1-0.2,1.4-0.3c0.3-0.1,0.6-0.5,0.8-0.6c0.4-0.1,0.8-0.2,1.1-0.4c0.9-0.3,0.1-2.4,0.8-2.6
		c0.7-0.3,1.2,0.4,2.2-0.2c0.2-0.1-0.1-1,0.1-1.2c0.4-0.3,0.7,0.4,1,0.1c0.4-0.3,0.6-1,0.9-1.3c0.8-0.8-1.2-2.6,0.7-3.9
		c0.7-0.5,1.6-0.1,2.4-0.2c0.6,0,0.2,0.9,1.3,1.2c0.8,0.2,2.4-0.1,3.9-0.4c0.6-0.1,0.2,0.5,1.8,0.5c0.7,0,1.2-0.4,1.8-0.8
		c0.6-0.4,1.7-0.6,2.2-1.2c0.2-0.3,0-0.9,0.2-1.1c0.5-0.6,1.1-0.2,2.5,0.4c0.4,0.2,1.4-0.7,1.9-0.6c0.4,0.1,0.5,0.7,0.9,0.7
		c0.7,0.1,1.2-0.1,1.8,0c0.6,0.1,0.2,1.7,1.4,1c0.3-0.2,0.4-1.1,1.4-1.1c1,0,1.2-0.6,1.8,0.1c0.3,0.4,1-0.3,1.6-0.4
		c0.2-0.1,0.9-0.2,1.3-0.5c0.4-0.3,0.5-0.7,0.7-0.7c1.3-0.3,1.6,1,2.5,0.9c1.3-0.2,0.7-1.8,1.7-2c0.4-0.1,1,0.6,1.4,0.6
		c0.4,0,0.5-0.6,1-0.7c0.7-0.1,1.9,0,2.7-0.3c0.5-0.2,0.6-0.8,1-0.9c0.8-0.1,1.3,0.3,1.8,0c0.4-0.3,0.7-0.8,1.1-1.1
		c0.4-0.4,0.8-0.3,1.1-0.6c1.4-1.5,0.5-3.2,1.8-3.1c0.4,0,1.1,0,1.2-0.4c0.1-0.5,0.1-1.5,0.3-2.1c0.2-0.6,0.3-0.8,0.6-0.7
		c0.5,0.1,1.5,0.1,2.1,0.1c0.8-0.1,0.9-0.4,1-0.8c0.1-0.7,0.3-1.2,0.6-1.6c0.2-0.3,0.8,1.1,1,0.8c0.7-1,0.9-1.5,1.6-1.6
		c0.9-0.2,0.4,0.5,1.1,0.9c0.7,0.4,1.7,0.8,2.3,1.5c0.9,1.2,0.6,0,0.9-0.1c0.6-0.1,0.5,1.3,1.3,1.2c0.4-0.1,1-0.4,1.3-1.5
		c0.2-0.8,1-0.9,1.2-0.5c0.4,0.8,1.2-0.6,2-0.6c0.4,0,0.8,0.3,1.3,0.2c0.4,0,0.9-0.4,1.2-0.3c0.2,0,0.2,0.5,0.4,0.6
		c0.3,0.1,0.7-0.3,0.8,0c0.2,0.4,0,0.9,1,1.3c0.5,0.2,0.2,1,0.3,1.5c0.1,0.7,0.3,1.4,0.5,1c0.1-0.2,0.4-0.5,0.4-0.9
		c0.1-0.9-0.1-2.1,0.8-1.2c0.4,0.4,0.5,1.4,0.9,2c0.3,0.6,0.9,0.9,1.1,0.6c0.2-0.4,0-1.1,0.2-1.6c0.2-0.5,1.4,0,2,0.4
		c0.3,0.2,0.8,0.2,1.1,0.4c0.4,0.2,1,1,1.4,1.2c0.2,0.1,1-0.4,1.2-0.3c0.5,0.3,0.7,1.2,1.1,1.5c0.9,0.8,1.1,0.4,1.6,0.1
		c0.2-0.1,0-0.6,0.3-0.8c0.2-0.1,0.9,0.1,1,0c0.2-0.2,0.1-0.6,0.3-0.7c0.4-0.3,1.2-0.6,1.6-0.9c0.4-0.3,1.1-0.3,1.5-0.6
		c0.4-0.3,0.5-1.5,0.9-1.8c0.1-0.1,0.8,0.2,0.8,0c0.1-0.4,0.1-1.2,0.4-1c0.4,0.2,0.8,0.5,1.2,0.4c0.4-0.1,0.5-0.6,0.8-0.9
		c0.5-0.5,1,0.1,1.3-0.4c0.2-0.3,0.1-1.7,0.3-2.1c0.2-0.3,0.8-0.5,0.9-0.8c0.3-0.5,0-2.2,0.2-2.6c0.2-0.3,0.8-0.1,1-0.3
		c0.5-0.5-0.1-1.2,0.3-1.3c0.3-0.1,1,0.3,1.3,0.2c0.6-0.2,1.9-1.6,2.6-1.8c0.8-0.3,2.1,0.1,2.9-0.1c0.9-0.2,1.1-0.6,1.7-0.8
		c0.7-0.3,0.7-0.9,1.1-0.8c0.8,0.1,1.3,0.6,2.4,0.7c0.9,0.2,1.7,0,2.6,0.1c1.1,0.1,1.6-0.1,2.2,0.3c0.3,0.2,0.3,0.6,0.5,0.8
		c0.3,0.3,0.9-0.1,1.4,0.1c1,0.5,1.1,2.6,1.4,1.9c0.2-0.4,0.5-1.2,0.9-1.5c0.3-0.3,1-0.3,1.4-0.7c0.2-0.2,0.1-0.5,0.3-0.7
		c0.1-0.1,0.8,0,1-0.1c0.2-0.1,0.2-0.9,0.4-1c0.3-0.3,1.3-0.3,1.6-0.5c0.4-0.3,0.4-0.8,0.6-1.1c0.5-0.7,0.7-1.2,1.1-1.7
		c0.2-0.2,0.1-0.6,0.3-0.9c0.4-0.5,0.6-0.5,1.1-1c0.8-0.8,0.6-2.3,1.5-2.2c0.5,0,1.3-0.2,2-0.1c0.5,0,1.4,0.3,1.9,0.3
		c0.9,0.1,1.5-0.5,2-0.4c0.6,0,0.7,0.6,1.1,0.9c0.2,0.1,0.6,0.3,1,0.3c0.4,0,0.8-0.3,1.1-0.1c0.3,0.2,0.3,0.6,0.6,0.8
		c0.4,0.2,1.2,0.4,1.5,0.6c1.1,0.8,0.8,1.1,1.2,1.6c0.2,0.3,0.4,0.9,0.8,1.2c0.3,0.3,0.8,0.3,1.1,0.7c0.4,0.5,0.3,0.8,0.5,1.2
		c0.2,0.4,0.3,1,0.7,1c0.7,0,1.2-0.6,1.6-0.6c0.4,0,0.7,0.5,1.1,0.5c0.4,0,1.1-0.5,1.5-0.5c0.3,0,0.2,0.3,0.5,0.4
		c0.3,0.1,0.4-0.4,0.7-0.4c0.4,0.1,0.3,0.5,0.6,0.5c0.8,0,0.8-0.8,1.3-0.6c0.3,0.1-0.2,0.7,0,0.9c0.1,0.2,0.4,0.4,0.4,0.6
		c0.1,0.2-0.4,0.4-0.3,0.6c0.1,0.2,0.7,0.4,0.8,0.6c0.1,0.3-0.5,1-0.2,1.7c0.5,1.2,1.5,0.6,1.5,1c0.1,1.5,0.5,1.6,1.2,1.8
		c0.4,0.1,1,0.1,1.7,0.2c0.6,0.1,1.1,0.3,1.5,0.1c1.1-0.3,0.7-1.4,1.3-1.3c0.5,0.1,0.9,0,1.6,0.1c0.6,0.2,1.4,1.1,1.5,0.2
		c0.1-0.9-0.5-2.2,0.2-2.4c0.2-0.1,0.4,0.4,0.6,0.3c0.2-0.1,1.7,0.3,2,0.2c0.3-0.1,0.2-0.8,0.4-1c0.2-0.2,0-0.9,0.2-1
		c0.6-0.5,0.8,0.8,1.2,0.8c0.4,0,0.5-0.9,0.8-1.2c0.4-0.3,1.1-1.1,0.9-1.5c-0.1-0.3-0.6-0.4-1-0.7c-0.8-0.4-0.3-0.8,0-0.9
		c0.3,0,0.8,0.7,1.2,0.7c0.3,0,0.3-0.3,0.6-0.4c1.1-0.2,0.9-0.4,1.9-0.6c1.5-0.2,2,0.2,2.7,0.1c0.8-0.1,1.4-0.8,1.4-1.1
		c-0.1-0.4-0.8-0.8-1.2-1.2c-0.8-0.8-1-2.2-0.5-2.9c0.3-0.5,0.4-1.4,0.9-2c0.6-0.9,1.2-1.8,1.8-2.7c0.5-0.6,0.4-1.9,0.8-2.5
		c0.3-0.4,1.2,0.1,1.5-0.3c1.6-1.8,1.5-2.6,2.6-3.7c1.1-1.1,3.5-0.1,4.1,1.1c0.5,0.9-0.3,2,0.2,2.6c0.2,0.2,1.3,0.6,1.6,0
		c0.3-0.6,0.7-0.6,1-0.2c0.5,0.6,0.7,1.1,1.2,1c0.4,0,0.7-0.7,1.5-0.6c0.8,0.1,2.2-1.2,1.7-1.7c-0.3-0.3-0.8-0.5-1-1
		c-0.2-0.4-0.3-1-0.2-1.5c0.1-0.5,0.3-1.1,0.7-1.7c0.4-0.7,0.6-0.9,0.9-1.3c0.2-0.3,1.1-0.2,1.3-0.6c0.6-1,0.9-2.5,1.1-2.9
		c0.8-1.6,1-1.5,1.7-1.8c0.5-0.2,2.2-0.6,2.8-0.8c0.3-0.1,0.6-1.4,0.9-1.5c0.5-0.2,2.5,0.8,3,0.6c0.6-0.2,1.3-1,1.8-1.2
		c0.2-0.1,0.7,0.1,0.9,0c0.3-0.1,0.4-0.6,0.7-0.7c1.9-0.8,1.8-0.9,2.8-1c0.6,0,1.2,0.3,2,0.2c1.6-0.1,2.8-0.5,3.6-1.4
		c1-1.3,1.4-2.9,2.8-3.5c0.7-0.3,2-0.2,2.9-0.6c0.9-0.4,2.5-1.4,3.4-1.9c0.8-0.4,1.5-0.3,2.1-0.6c1.6-0.6,1.6-1.5,2.5-2
		c0.3-0.1,0.6,0.2,1-0.1c0.5-0.4,0.2-1,0.6-0.9c0.4,0.1,0.9,0.1,1.4,0.2c0.2,0,0.4,1.1,0.6,1c0.3-0.1,0.1-1.6,0.5-1.4
		c0.3,0.2,0.6,0.5,0.8,0.4c0.3-0.2,0.5-0.6,0.8-0.5c0.5,0.2,0.6,0.7,1,0.7c0.3,0,0.5-0.5,0.6-0.4c0.3,0.3,0.7,0.6,0.9,0.9
		c0.2,0.3,0.9,0,1.1,0.2c0.4,0.4,0.3,1.3,0.5,1.7c0.7,1.2,1.1,1.4,1.8,1.4c0.5,0,0.6-0.9,1.1-1.1c0.3-0.1,2.2,0.1,2.4,0.5
		c0.2,0.4,0.6,1.2,0.7,0.8c0-0.1-0.1-0.6-0.1-0.9c0-0.4,0.1-0.8,0.3-0.9c0.3-0.1,1.4-1.4,1.7-1.6c0.5-0.3,0.7,0.4,1.1,0.3
		c0.6-0.2,1.1-0.8,1.1-0.8l0-2c0,0,0.4-0.8,0.6-1.2c0.3-0.5,1.1-0.3,1.7-0.4c0.8-0.1,1.9,0.7,2.5,0.1c0.3-0.3,2,0.8,2.3,0.5
		c0.4-0.4-0.2-1.7,0-2.3c0.4-1.3,0.7-1.8,1.5-2c0.9-0.2,2.6,0.4,2.7-0.5c0.1-0.7-0.1-1.6,0.3-2.2c0.2-0.3,0.7-0.5,1.2-0.9
		c0.4-0.3,0.7-0.7,1.1-0.9c0.3-0.1,0.7,0,0.9,0c0.6-0.2,0.8-0.2,1-0.5c0.2-0.4-0.1-0.7,0-0.9c0.1-0.2,0.5-0.7,0.6-0.9
		c0.6-1.5,0.5-2,0.5-3c0-0.8-0.3-1.7,0.1-2.3c0.3-0.4,1.1-0.4,1.4-1c0.4-0.7,0.4-1.4,0.4-2.1c-0.1-1.5-0.6-3.3,0-4.7
		c0.4-1,2.8-2.7,2.7-4c-0.1-1.4-0.5-2.2-0.6-3.3c-0.2-1.6,1.4-2.4,0.7-3.1c-0.3-0.3-0.1-1.2-0.5-1.5c-0.8-0.6-2.6,0.2-2.3-0.5
		c0.3-0.8,0.3-2.5,1.1-2.6c2.5-0.5,2.2-0.7,2.4-1.7c0.4-1.7-1.2-2.3-0.8-3.4c0.1-0.4,0.9-0.5,1-1c0.8-2.5,0.7-4.3,1.2-6.1
		c0.2-0.7,1.4-1,2.1-0.9c1.1,0.1,2.2,0.4,3.3,0.3c1.5-0.2,3.3-0.1,4.5-1c1.4-1.2,4.5-4.9,6.3-4.8c1.1,0,2.8,2.4,3.6,2.8
		c0.7,0.4,1.3-0.6,1.6-0.2c0.2,0.3,0.4,0.7,0.4,1.1c0.1,1.8-0.7,3.9,0.4,5.4c1,1.3,1.4,2.7,2.4,3.8c0.9,1.1,3.9,3.7,5.3,1.3
		c0.6-1.1,0.1-2.4,0.8-2.1c0.7,0.3,1.4,1,2,0.7c0.4-0.2,0.5-0.6,0.9-0.9c0.3-0.2,1.1-0.1,1.4-0.3c0.4-0.3,1.1-1.2,1.5-1.5
		c0.4-0.3,2.3-0.7,2.7-1c0.8-0.6,1.4-1.1,1.9-1.5c0.4-0.4,1-0.6,2-0.6c1.4-0.1,2.4,1.2,2.9,0.4c0.3-0.5,0.2-1.7,0.1-2.6
		c-0.1-2.1-1.8-2.1-1.5-3.3c0.4-1.5,2.3-1.8,3.2-2.9c0.5-0.7,1.3-1.4,1.9-2.4c0.4-0.8,0.8-2.6,1.2-3.4c1.1-2.6,1.1-2.5,1-3.8
		c-0.2-2,1.2-3.8,0.5-4.8c-0.7-1-1.8-1.5-2.7-2.7c-0.9-1.1-1.3-2.3-2.1-3.6c-1.4-2.3-2.4-2.4-3.3-3.4c-1.3-1.5-1.3-2-2.1-2.6
		c-0.4-0.2-0.9-0.5-1.3-0.8c-0.4-0.2-0.2-0.8-0.6-1c-0.4-0.3-1.9-0.6-2.3-0.8c-1.3-0.6-1.8-0.4-2.6-0.8c-0.7-0.4-1.9-1.2-2.9-0.6
		c-1.2,0.6-3,0.5-4.4,0.7c-2.9,0.4-4.2,0.6-5.5-0.5c-0.4-0.3-0.6-1-1-1.3c-1-0.8-2-2.3-3-3c-1.5-1.1-2.2-0.6-2.7-1.5
		c-0.3-0.5-0.1-2.3-0.5-3c-0.8-1.3-1.4-1.5-2.3-2c-1.9-1-2-1-3.1-1.2C583.7,381.3,583,381.6,581,381.6L581,381.6L581,381.6z"/>
</g>
</svg>
