<svg xmlns="http://www.w3.org/2000/svg" viewBox="0 0 801.2 801.2"><style>.st0{fill:#959a90}.st1{fill:#f4f7f2}</style><circle class="st0" cx="400.9" cy="400.6" r="400.6" id="badge"/><g id="outline"><path class="st1" d="M768.5 437c-18.8 185.4-175.8 330.6-366.1 330.6S55 622.3 36.4 436.8l-2.7.4c18.8 186.8 177 333.1 368.8 333.1 191.6 0 349.8-146.2 368.8-332.9l-2.8-.4zM36.4 362.6C55 177 212.1 31.7 402.5 31.7c190.3 0 347.3 145.2 366.1 330.6l2.7-.4C752.2 175.2 594.1 29 402.5 29c-191.8 0-350 146.3-368.8 333.2l2.7.4z"/><path class="st1" d="M128.4 376.9c11.6-141 130.1-252.3 274.1-252.3 143.9 0 262.3 111.1 274 252l2.7-.4C667.3 234 547.7 121.9 402.5 121.9c-145.3 0-265 112.2-276.8 254.6l2.7.4zM676.5 422.6c-11.7 140.9-130.1 252-274 252-144 0-262.5-111.2-274.1-252.3l-2.7.4C137.5 565 257.1 677.3 402.5 677.3c145.3 0 264.8-112.1 276.8-254.3l-2.8-.4z"/></g><g id="text"><path class="st1" d="M137.1 565c.2-2.5-.9-5.4-1.9-7.2-1.2-2.1-2.6-3.1-4.9-1.8-4.5 2.6 6.1 14.5-4.5 20.8-3.4 2-6.7 1.8-9.3.5-2.5-1.2-4.8-3.5-6.5-6.4-1.8-3.1-3.5-7.7-2.8-11.4l7 .4c-.4 2.8.6 6 1.9 8.2 1.2 2 2.7 3.3 5.2 1.8 5-3-5.8-14.7 4.7-20.9 3.1-1.8 5.9-1.6 8.5-.5 2.8 1.2 5.1 3.4 6.8 6.3 1.7 2.8 3.2 7 2.7 10.3l-6.9-.1zM162.3 587.3l-5.8 4.1-5.1-7.1-21.9 15.6-4.6-6.5 21.9-15.6-5-7 5.8-4.1 14.7 20.6zM150.4 625.6l3.7-5.6-7-8.2-6.1 2.8-5.3-6.2 32.7-14 6.2 7.2-18.8 30.4-5.4-6.4zm15-22.3L153 609l4.8 5.6 7.6-11.3zM186.3 614.2l-5.4 13.2 13.2-5.7 6.5 6.3-22.5 7.8-8.8 9.1-5.7-5.6 8.8-9.1 7.5-22.5 6.4 6.5zM228.6 649.9l-4.2 5.7-10-7.5-4.2 5.6 9.1 6.8-4.2 5.6-9.1-6.8-7.7 10.2-6.4-4.8 20.4-27.2 16.3 12.4zM238 692.2c-3.2.7-6.8.3-11.3-2.4-4.4-2.7-6.6-5.7-7.3-8.8-.9-4.1.6-8.4 3.8-13.7 3.2-5.2 6.5-9 11-10.1 3.1-.8 6.8-.3 11.3 2.4 4.5 2.7 6.6 5.7 7.3 8.8 1 4-.6 8.5-3.8 13.7-3.2 5.3-6.5 8.9-11 10.1zm6.9-23.1c-.2-1.3-1.2-2.6-3-3.7-1.9-1.1-3.6-1.4-5.1-.9-1.9.7-3.6 2.6-6.2 6.9-2.5 4.2-3.7 6.9-3.3 8.9.2 1.3 1.2 2.6 3 3.7 1.9 1.2 3.6 1.4 5.1.9 1.9-.7 3.6-2.6 6.2-6.9 2.6-4.3 3.6-7 3.3-8.9zM275.6 676.4c2.9 1.3 5.1 2.9 6.5 5 1.4 2.2 1.8 4.9.1 8.7-2 4.2-5.2 6.7-9.8 5.8 3.5 2.5 2.9 6.9-.3 16.3l-7.6-3.5c2.7-8.8 3.1-11.3.3-12.5l-4.1-1.9-4.9 10.4-7.2-3.4 14.3-30.8 12.7 5.9zm-12 11.8l3.3 1.5c3.4 1.6 5.6 1.7 7.4-2.2.7-1.5.8-2.4.5-3.3-.3-.7-1-1.2-2.4-1.9l-5-2.3-3.8 8.2zM324.3 694.1l-2.1 6.8-8.3-2.6-8 25.7-7.6-2.4 8-25.7-8.3-2.6 2.1-6.8 24.2 7.6zM336.5 696.9l-2.6 12.8 10.5 2.1L347 699l7.8 1.6-6.8 33.3-7.8-1.6 2.8-13.5-10.5-2.1-2.8 13.5-7.8-1.6 6.8-33.3 7.8 1.6zM382.4 703.6l-.7 6.6-12.5-1.3-.7 6.8 11.4 1.2-.7 6.6-11.4-1.2-.7 7.3 12.7 1.3-.7 6.6-20.5-2.1 3.4-33.8 20.4 2zM426 734.4c-2.2 2.4-5.6 4-10.8 4.2-5.1.2-8.6-1.1-10.9-3.3-3-2.9-4.1-7.4-4.4-13.5-.2-6.1.5-11.1 3.6-14.4 2.2-2.3 5.5-4 10.7-4.2 5.2-.2 8.7 1.1 11 3.3 3 2.8 4.1 7.4 4.4 13.5.3 6.2-.5 11-3.6 14.4zm-6.9-23c-.9-.9-2.5-1.5-4.5-1.5-2.2.1-3.8.8-4.7 2.1-1.2 1.6-1.6 4.1-1.4 9.2.2 4.9.7 7.8 2.1 9.3.9 1 2.4 1.5 4.5 1.4 2.3-.1 3.8-.8 4.7-2.1 1.2-1.6 1.6-4.2 1.4-9.2-.2-5-.7-7.8-2.1-9.2zM447.9 700.8c3.1-.4 6.1-.3 8.5 1 2.4 1.4 4.3 3.9 5 8.8.7 4.7-.2 7.9-2.2 10.1-1.8 1.9-4.4 2.9-8 3.5l-4.8.7 1.5 10.3-7.9 1.2-4.9-33.6 12.8-2zm-2.5 17.2l4.6-.7c1.6-.2 2.4-.7 2.9-1.3.6-.8.6-2.1.3-4.1-.4-2.5-.9-3.5-1.7-4-.8-.5-1.7-.5-3.2-.3l-4.4.6 1.5 9.8zM477.8 694.7c3-.8 6-1 8.5.1 2.6 1.1 4.7 3.4 5.9 8.3 1.2 4.6.6 7.9-1.2 10.2-1.6 2.1-4.1 3.4-7.7 4.3l-4.7 1.2 2.5 10.1-7.7 1.9-8.3-33 12.7-3.1zm-.8 17.4l4.5-1.1c1.5-.4 2.4-.9 2.8-1.6.5-.8.4-2.2-.1-4.1-.6-2.4-1.3-3.4-2.1-3.8-.8-.4-1.8-.3-3.2.1l-4.3 1.1 2.4 9.4zM528.1 710.8c-1.4 2.9-4.1 5.5-8.9 7.3-4.8 1.8-8.5 1.6-11.4.2-3.8-1.8-6.2-5.7-8.3-11.5-2.1-5.7-2.9-10.7-1-14.8 1.3-2.9 4-5.5 8.9-7.3 4.9-1.8 8.6-1.6 11.5-.2 3.7 1.8 6.2 5.8 8.3 11.5 2 5.8 2.8 10.6.9 14.8zM514.4 691c-1.2-.6-2.8-.7-4.8 0-2.1.8-3.3 1.9-3.9 3.4-.7 1.9-.2 4.4 1.5 9.2 1.7 4.6 3.1 7.2 4.9 8.2 1.2.6 2.8.7 4.7-.1 2.1-.8 3.3-1.9 3.9-3.4.7-1.9.2-4.5-1.5-9.1-1.7-4.8-3.1-7.2-4.8-8.2zM539.2 671.6c2.8-1.4 5.5-2.2 8-1.9 2.6.3 5 1.6 6.8 5.4 2.1 4.2 2 8.2-1.6 11.3 4.2-1.2 7.2 2 12.5 10.4l-7.5 3.7c-5.2-7.7-6.8-9.5-9.6-8.1l-4 2 5.1 10.3-7.1 3.5-15.1-30.4 12.5-6.2zm1.7 16.8l3.2-1.6c3.4-1.7 4.8-3.3 2.9-7.1-.7-1.5-1.4-2.2-2.2-2.4-.8-.2-1.6 0-3 .7l-4.9 2.4 4 8zM573.7 651.7l3.7 6-7.4 4.6 14.1 22.9-6.8 4.2-14.1-22.9-7.4 4.6-3.7-6 21.6-13.4zM583.7 644.3l13.3 17.3c2.2 2.9 3.8 4.4 7.8 1.3 3.8-2.9 3-4.8.6-7.8l-13.3-17.3 6.3-4.8 13.2 17.3c1.9 2.5 3.4 5.2 3.4 8.1 0 3.2-1.8 6.8-6.3 10.3-4.4 3.4-8 4.1-10.7 3.5-3.1-.7-5.3-3-7.2-5.5l-13.4-17.5 6.3-4.9zM611.4 621.2l23.9 9.1-16.3-16.4 5.5-5.3 23.6 24.4-7.2 7-23.9-9.1 16.3 16.5-5.5 5.3-23.6-24.4 7.2-7.1zM634.7 596.6l25.6 22.3-5.2 6-25.6-22.3 5.2-6zM653.4 572.6l5.7 4.3-5.2 7 21.5 16.1-4.8 6.4-21.6-16.2-5.2 6.9-5.7-4.3 15.3-20.2zM660.3 561.6l28.5 18.4-4.3 6.7-28.5-18.4 4.3-6.7zM674.3 537.1l5.8 3.2-6 11 6 3.3 5.5-10 5.8 3.2-5.5 10 6.4 3.5 6.2-11.2 5.8 3.2-9.9 18-29.8-16.3 9.7-17.9zM691.6 518.6c-2.1 1.3-3.8 3.9-4.7 5.7-1 2.2-1 3.9 1.4 5 4.7 2.1 8.2-13.4 19.5-8.5 3.6 1.6 5.4 4.4 5.9 7.3.5 2.7-.1 6-1.4 9-1.4 3.3-4.2 7.4-7.6 8.9l-3.8-6c2.5-1.3 4.5-4 5.5-6.4.9-2.1 1.2-4.1-1.5-5.3-5.4-2.4-8.6 13.3-19.6 8.4-3.3-1.4-4.8-3.8-5.4-6.6-.7-3-.2-6.1 1.1-9.2 1.3-3 3.8-6.7 6.8-8.2l3.8 5.9zM159.6 207.9c1.1 4.6.3 8.7-2.6 12.7-2.6 3.6-5.4 5.1-8.1 5.5-4.6.7-9.3-1.9-13.5-4.9-4.6-3.3-8.3-7.1-9.2-11.6-.6-3 .1-6.5 2.9-10.5 2.1-3 5.1-5.6 9-6.1l1.9 6.7c-2.3.4-4.2 1.9-5.4 3.7-1.4 2-1.5 3.5-1 4.7.6 1.5 2.2 3.2 6.5 6.3 4.2 3 6.3 4 8 4 1.2 0 2.4-.5 3.5-2 1.5-2.1 1.8-4.7 1.2-7.5l6.8-1zM179.7 187.4c.2 3.2-1 6.8-4.4 10.7-3.4 3.8-6.8 5.5-10 5.6-4.2.2-8.2-2.1-12.8-6.2-4.6-4-7.6-8-7.9-12.6-.2-3.2.9-6.8 4.4-10.7 3.5-3.9 6.8-5.5 10-5.6 4.1-.2 8.2 2.2 12.8 6.2 4.6 4.1 7.6 8 7.9 12.6zm-21.5-10.9c-1.3 0-2.8.7-4.2 2.3-1.5 1.7-2 3.3-1.8 4.9.3 2 1.9 4 5.7 7.4 3.6 3.2 6.1 4.9 8.2 4.9 1.3 0 2.7-.7 4.1-2.3 1.5-1.7 2-3.3 1.8-4.9-.3-2-2-4-5.7-7.3-3.7-3.5-6.1-5.1-8.1-5zM174.8 149.1l18.8 12-9.4-20.3 7.9-6.9 23.8 24.3-5.8 5.1-17.2-18.3 10.6 22.1-5.5 4.8-20.5-13.4 15.9 19.5-5.8 5.1-21-26.8 8.2-7.2zM218.8 115.1l3.8 5.5-10.3 7.1 3.9 5.6 9.4-6.5 3.8 5.5-9.4 6.5 4.1 6 10.5-7.3 3.7 5.4-16.9 11.7-19.3-28 16.7-11.5zM256.5 94.1l3.3 6.3-11.1 5.7 3.2 6.3 10.1-5.2 3.2 6.2-10.1 5.2L261 130l-7.1 3.7-15.6-30.2 18.2-9.4zM298.5 110.1c-1.3 3-3.9 5.6-8.8 7.6-4.8 1.9-8.5 1.8-11.4.5-3.8-1.7-6.3-5.6-8.6-11.2-2.3-5.7-3.2-10.6-1.4-14.8 1.3-2.9 3.9-5.6 8.7-7.5 4.8-1.9 8.5-1.8 11.4-.5 3.8 1.7 6.4 5.6 8.6 11.3 2.4 5.5 3.3 10.3 1.5 14.6zm-14.2-19.4c-1.2-.6-2.8-.6-4.8.1-2.1.8-3.3 2-3.8 3.5-.6 1.9-.1 4.4 1.8 9.1 1.8 4.5 3.3 7.1 5.1 8 1.2.6 2.8.6 4.7-.2 2.1-.8 3.3-2 3.8-3.5.6-1.9.1-4.5-1.8-9.1-1.8-4.6-3.2-7-5-7.9zM313.6 73.1c3-.8 5.8-1.1 8.2-.4 2.5.8 4.6 2.6 5.7 6.6 1.2 4.5.4 8.4-3.7 10.8 4.3-.4 6.7 3.3 10.3 12.6l-8.1 2.2c-3.6-8.5-4.9-10.6-7.9-9.8l-4.3 1.2 3.1 11.1-7.7 2.1-9.1-32.7 13.5-3.7zm-1.4 16.8l3.5-1c3.7-1 5.3-2.3 4.2-6.5-.4-1.6-1-2.4-1.7-2.8-.7-.4-1.6-.3-3 .1l-5.3 1.5 2.3 8.7zM369 62.7l1 7-8.6 1.2 3.7 26.6-7.9 1.1-3.7-26.6-8.6 1.2-1-7 25.1-3.5zM384.9 61.7l.5 13.1 10.7-.4-.5-13.1 7.9-.3 1.2 33.9-7.9.3-.5-13.8-10.7.4.5 13.8-8 .3L377 62l7.9-.3zM434.8 62.6l-.4 6.6-12.5-.8-.4 6.8 11.4.7-.4 6.6-11.5-.7-.5 7.3 12.8.8-.4 6.6-20.5-1.3 2.2-33.9 20.2 1.3zM472.7 76.8c-1.8-1.8-4.6-2.9-6.6-3.3-2.4-.5-4-.1-4.5 2.5-1 5.1 14.9 5 12.6 17.1-.8 3.9-3.1 6.2-5.8 7.3-2.6 1.1-5.9 1.3-9.1.6-3.5-.7-8.1-2.5-10.4-5.5l5-5c1.8 2.2 4.9 3.5 7.4 4 2.3.4 4.3.2 4.8-2.7 1.1-5.7-14.8-5.4-12.5-17.3.7-3.5 2.7-5.5 5.2-6.7 2.8-1.3 5.9-1.6 9.2-.9 3.2.6 7.3 2.2 9.5 4.8l-4.8 5.1zM501.6 108.3c-2.9 1.5-6.6 2-11.6.5-4.9-1.5-7.8-3.8-9.2-6.7-1.9-3.7-1.5-8.3.3-14.2 1.8-5.8 4.1-10.3 8.1-12.5 2.8-1.5 6.5-2 11.5-.5s7.8 3.9 9.3 6.7c1.9 3.7 1.5 8.4-.3 14.2-1.8 6-4.1 10.3-8.1 12.5zm.9-24c-.6-1.2-1.8-2.3-3.8-2.9-2.1-.6-3.8-.5-5.2.4-1.7 1.1-2.8 3.4-4.3 8.3-1.4 4.7-1.9 7.6-1 9.5.6 1.2 1.8 2.2 3.8 2.8 2.2.7 3.8.5 5.2-.4 1.7-1.1 2.8-3.5 4.3-8.2 1.5-4.9 1.9-7.7 1-9.5zM530.8 86.5l-10.3 24.8 10.8 4.5-2.7 6.5-18.1-7.5 13-31.4 7.3 3.1zM555.8 97.9l-10.2 19.3c-1.7 3.2-2.5 5.3 2 7.6 4.3 2.3 5.6.7 7.4-2.7l10.2-19.3 7 3.7-10.2 19.2c-1.5 2.8-3.3 5.3-6 6.5-2.9 1.3-7 1.2-12-1.5-4.9-2.6-7-5.6-7.6-8.3-.7-3.1.5-6.1 2-8.9l10.3-19.4 7.1 3.8zM600.3 125l-4 5.9-7.2-4.9-15.2 22.2-6.6-4.5 15.1-22.2-7.2-4.9 4-5.8 21.1 14.2zM612.4 134.2l-20.7 26.9-6.3-4.9 20.7-26.9 6.3 4.9zM617.8 179.9c-3.2.1-6.8-1-10.6-4.6-3.8-3.4-5.4-6.8-5.4-10-.1-4.2 2.2-8.2 6.3-12.7s8.1-7.5 12.7-7.7c3.2-.1 6.7 1 10.6 4.5 3.9 3.5 5.4 6.9 5.5 10.1.2 4.1-2.3 8.2-6.4 12.7-4.1 4.5-8.1 7.4-12.7 7.7zm11.2-21.3c0-1.3-.7-2.8-2.2-4.2-1.6-1.5-3.2-2.1-4.8-1.9-2 .3-4 1.9-7.4 5.6-3.3 3.6-5 6-5 8.1 0 1.3.7 2.8 2.3 4.2 1.7 1.5 3.2 2.1 4.8 1.9 2-.3 4.1-1.9 7.4-5.6 3.4-3.8 4.9-6.1 4.9-8.1zM655.3 174.6L644.9 198l17.3-15.4 5 5.8-25.6 22.3-6.6-7.7 10.4-23.4L628 195l-5-5.8 25.6-22.3 6.7 7.7zM677 215.8c0-2.5-1.3-5.3-2.5-7-1.4-2-2.8-2.9-5-1.4-4.2 3 7.2 14-2.8 21.1-3.2 2.3-6.6 2.3-9.3 1.3-2.6-1-5.1-3.2-7-5.9-2.1-2.9-4.1-7.4-3.7-11.1l7.1-.1c-.2 2.8 1.1 6 2.6 8 1.3 1.9 2.9 3.1 5.3 1.4 4.8-3.4-6.9-14.2 3-21.2 2.9-2.1 5.7-2.1 8.4-1.2 2.9 1 5.3 2.9 7.3 5.7 1.9 2.7 3.7 6.7 3.5 10.1l-6.9.3z"/></g><g id="crosses"><path class="st1" d="M81 404.6l-13.3 13.2-5-5.1L76 399.6l-13.3-13.1 5-5L81 394.7l13.3-13.2 5 5L86 399.6l13.3 13.1-4.9 5L81 404.6zM723.9 404.6l-13.3 13.2-5-5.1 13.3-13.1-13.3-13.1 5-5 13.3 13.2 13.3-13.2 5 5-13.3 13.1 13.3 13.1-4.9 5-13.4-13.1z"/></g><path class="st1" d="M581 381.6c-3 .1-5.3.9-7.8.5-4.8-.8-5.3-2-7.4-3.8-2.4-2-4.8-4-6.8-5.9-1.4-1.3-3.4-1.4-4.1-2.7l-1.1-2.6c-1.1-2.7-3.3-3.4-2.9-5.2.2-.7.9-2 1.1-2.7.2-1 .5-1.7.1-2.4-.5-.9-.7-2.9-2-3.5-2.3-1-1.4-2.2-1.7-3.4-.2-.7-.3-1.6-.5-2.6-.1-.7-1.3-1.8-1.4-2.5-.2-1.1.4-2.6.4-3.5-.1-1.6.9-3.1.1-3.4-.6-.2-1.4.1-2 0-1-.1-1.5 0-1.7-.6-.9-2.1.4-2-.1-2.8-.3-.5-1.1-1-1.5-1.6-.4-.6 0-2.1-.3-2.7-.4-.7-1.2-1.3-1.6-2-1.2-1.9-.9-2.6-1.4-3.2-.8-1-1.3-.8-1.8-1.3-1.4-1.3-2.7-3.6-5.1-5-2-1.1-1-2-1.9-2.6-2.5-1.5-1.8-2.1-2.8-3.2-.7-.8-2.1-1.7-2.7-2.3-.7-.8-.4-.8-.5-1.2-.1-.9-.1-1.7-.2-2.6-.1-1.3-1.4-2.4-1.8-1.7-.5.7-1.1 1.9-1.5 1.4-.6-.7-1.3-1.3-1.8-1.5-.5-.2-.8.7-1.2.7-1.1 0-1.8-1.6-2.5-1-.8.6-1.8 1.5-2.4 1.1-.7-.5-1.1-1.6-2-2.2-.6-.4-1.4-1.8-2-2-.9-.4-1.1-.4-1.7-.5-1-.2-.5-.8-1-1.4-.3-.3-.5-1.3-.8-1.7-.3-.4-1.2-.6-1.6-1-1.3-1.3-1.6-1.4-1.3-2.2.7-2.8.3-4-.9-4.8-.5-.4-.8-.6-1.2-.7-.5 0-.6 1-1.1 1-2 .1-4.3-.3-6.2.5-2 .8-3.7 3.4-5.5 3.2-1.2-.1-1.9.2-2.1-.4-.3-.8 0-2.1-.5-2.7-.8-.9-1.8-.8-2.3.3-.5 1.2-.9 4.1-1.5 4.5-.9.5-2.1.6-3.2 1.1-1.1.4-2.2 1.3-2.9 1-2.1-.9-3.8-2.1-5.4-3.6-1.1-1-2-2.8-1.3-3.9.8-1.4 4.4-3.6 2.9-4.2-1-.4-1.8-2-2.7-1.5-1.5.8-2.8 1.8-4.4 1.7-1.3-.1-3.4-.7-3.7-1.9-.5-2 .9-4.8-.8-5.4-1.8-.6-5.3-1.7-5.3-1.7s-1.6 1.2-2.5 1.1c-.9-.1-2.2-.7-2.3-1.6-.2-1.3 1.6-4.1.1-4.6-1.6-.6-3.5.9-3.1-.1.3-.5.5-2.1-.8-2-1.2.1-3.8.1-3.4-1.2 1.1-4.2-1.3-3.4-2.3-4.5-2.2-2.3-2.8-4.4-2.7-6.2.2-2.7 2-1.7 1.9-2.7-.1-.7-.5-2.1.2-2.6.5-.3 2.4 0 2.4-.4 0-.8-.4-1.1-.7-2-.1-.2 0-1.4-.4-1.8-.3-.3-.6-.5-1-.7-.4-.2-.5-1.9-.9-2.1-.4-.2-1 .9-1.4.9-1.1 0-.9-.8-1.5-1-2.6-.6-2.8.9-3 1.8l-.9 3.4c-.3 1.1-2.3.8-3 0-.4-.4-1.4-1.7-1.7-2.7-.5-1.6-1-3-1.5-4.7-.4-1.3-1.5-2.7-2.8-2.8-2-.1-3.9-.1-5.7-.7-1.2-.4-2.2-1.7-3.4-2.4-.9-.5-1-2.3-1.6-3-1.6-1.7-1.9.5-2.8.4-1.2 0-3.1.9-5 .5-1.3-.3-2.6-2-3.4-2-1.1 0-1.4 1.6-2.2 2.2-1 .8-2 1.8-3.2 1.5-3.8-.8-3.7-1.4-5.2-2.6-1.6-1.3-3.3-2.6-4.9-3.9-.7-.6-1.3-1.6-2.1-2.3-.7-.6-2.1-.8-2.3-1.8-.6-3.3-2.5-1.4-3.4-2.3-.6-.7-.8-1.9-1.6-2.6-.6-.5-3.8-.8-4.4-1.2-.7-.5 1.1-1.5.8-1.8-.7-.8-1.8-1.7-2.9-2.2-1.6-.7-5-2.5-5.1-1l-.1 2c0 1.2-1.1.7-1.7.6-1.5-.2-2.8-.3-3.2-1.4-.6-1.5-1.1-5.4-2.2-4.3-1.2 1.2-1.8 3.7-3.1 2.7-.9-.7-1.7-.7-1.7-1.4 0-1.3-.4-2.6-1.5-2.7-.7-.1-1.4-.4-2-.2-.9.3-1.7 1.2-3 1.4-.7.1-1.5-1-2.2-1-2.6.2-4.7 2.6-3.7 4.1.6 1 1.9 1.9 2.2 3.3.6 2.5 2.6 4.3 1.2 4.3l-1.5.1c-2 .1-3 .3-3.7 1.4-.8 1.1-.1 3.3-1.2 4.2-1.1.9-2.3 1-3.1.5-.7-.4-1.2-1.8-1.9-2.2-.6-.3-1.3-1-2.2-1.1-.7-.1-1.5.5-2 .2-1.3-.8-1.8-3.1-3.3-2.9-.7.1-2.2-.2-3.1-.1-1.3.2-1.4.3-1.9.8-1 1-2.7 3.1-3.8 2.2l-3-2.3c-1.2-.9-2.8-.1-3.5-.8-.5-.5-.9.4-1.9.4-.6 0-2.4-1.6-2.9-1-.5.7.3 2 .3 3.2 0 1.4-.7 1.1-.9 1.8-.1.6.2 1.8-.5 2.1-.3.1-.4-.9-.7-1-.5-.2-1 .2-1.2-.2-.4-.9-.2-3.3-1.2-2.8-.5.3-.6 1.2-1.3 1.5-.7.3-1.6-.7-2.3-.6-1 .2.2 1.2-.1 1.7-.5 1-1.8.8-1.8 1.6 0 .7-.2 1.2-.6 1.5-.4.3-1.1 1.5-1.6 1.5-1 0-1.5-1.9-2-1.3-.3.4.4 1.6.6 2.2.3.9.6 1 .2 1.3-.4.3-3.2.8-3.7 1.2-.6.4-1.1 1.5-1.6 1.9-1.8 1.6-2.1 1.5-2.8 2.5-.5.7-1.6 1.2-1.3 2.2 1 2.8-.1 1.8-1.8 4.6-1.6 2.5-.4.7-3.6 2.9 0 0-1.7 1.1-2.5 1.7-.4.3-.9 1.2-1.4 1.1-2.4-.7-2.9-1.4-3.5-.4-.8 1.1.2 1.9.2 2.8 0 1.1-.4 2.3-1.3 3-.4.3-1.3.4-1.8.8-1.9 1.5-4.2 2.6-3.7 4.3.2.6.5.8.3 1.1-.1.4-.2.9-.4 1.2-1.5 1.6-5 4.6-4.3 6.8.6 2 .3 4.4 1.6 4 .6-.2 1.3-1 1.5-.5.2.6.9 1.3.5 1.9-.2.4-.6.8-.7 1.2-.3 1.6.8 3.3 2.1 3.6 1.1.2 2.4-.9 3.4-.7 2.1.3 1.6 2.5 1.1 3.7-.5 1.4-.1 3.6-1.5 4.1-.6.2-1.8-.5-2.6-.2-1.5.5-2 1.1-2.5 2.1-.7 1.5-2.3 3-2 4.6.2 1.1.9 2.5.1 3.1-.9.7-2.9 1-4.1 1.9-2.1 1.6-3.6 1.8-4.1 3.4-.4 1-.9 2.5-.2 3.4 1.1 1.4 3.2 4.3 3.2 4.3s1.4 1.5 1.6 2.4c.4 1.6-.1 3.7-1 5.1-1.7 2.8-2.8 4-4.8 5.4-2.7 2-6.1 3.8-8.1 4.3-1.1.3-1.3.3-2-.7-.6-1-1.3-2.1-1.9-3.1-.7-1.1-1.1-1.1-1.9-1.3-2.8-.6-6.2-.6-7.6.6-.8.7-1.3 3.9 0 4.1 1.1.1 1.9-.3 2.4.3 1.7 2-.9 3.2-2.1 4.1-1.2.8-2.1 2.1-3.5 2-1.1-.1-2.8 0-2.6 1 .3 1.6 1 3.4-.2 4.2-1.1.8-2.1 1.8-3.4 2.3-.7.3-1.9-.2-2.1.5-.2.8 0 2-.3 3.2-.5 1.9-1 2.6-1.9 3.7-1.5 1.7-1.6 2.8-2.9 2.7-.8-.1-1.6-.4-2.3-.4-.4 0-.6.4-1.1.6-.3.2-1.1.1-1.1.8 0 .6 0 1.3.4 1.6 1.4 1 3.2 2.4 3.1 3.9-.1 1.2-.3 2.4-1.1 3.7-1.1 1.6-2.8 3.2-1.7 3.9 1.5.9 2.7 1.2 3.1 2.4 1.1 3.3 4.9 7 3.2 10-.7 1.3-1.2 3.5-2.2 5.2-.6 1-1.7 3.5-2.2 4.4-1.4 2.1-2.4 1.7-1.6 2.7.5.7 1.5 1.6 2 2.3.6.9.1 1.3.4 1.9.1.2 1.3-.1 1.7.5.7 1-1.1.8-1.1 1.5 0 .6.9.7 1.3 1.1.6.6.4 1.3 0 1.6-2 1.3-1.9 4.1-.4 4.3 1.1.1 1.1.7 1.3 1.2.3.7.2 1.6.6 2.4.3.6 2.2 1 2.5 1.6.5.8-.7 1-.6 1.3.2.5 1.2.6 1.4 1 .5 1.2.1 1.7 0 2.6-.1.6 0 2.1-1 3.4-.5.7-.5 2-.7 2.7-.5 2-1.1 2.6-.3 3.4.6.6 1.4 1.1 2 1.8.4.5.7 1.1 1.3 1.3 1.1.3 2.7.5 3.1 1.6.9 2.8-.5 1.5-.5 2.7 0 .4.3 1.1.6 1.3 1.7 1.6 3.9 2.8 5.2 4.8 1.3 2 1.2 4.5 1.1 6.6 0 .5-1.3.1-1.3.9 0 .5.5.8.7 1.3.3.6-.2 1.1 0 1.5.2.4 1.4 0 1.9.4 1.1.9.7 2.4.5 3.7-.2 1.1.8 1.7 1.3 2.5.7 1-.8 1.8-.6 2.2.4.9 1.3 1.6 2 2.4.8.9.1 1.8.3 2.3.3.5 1.1.4 1.3.8.2.3 0 1.3.2 1.6.2.3 1.2-.1 1.3.2.3.4-.2 1.1-.1 1.4.2.6.8.3.8.7 0 1.5.5 1.7.7 1.3.2-.4 1.1.5 1.5 1.1 1.1 1.6 1.8 3.4 2 5.3.5 3.6-.2 5.2-2 6.1-.6.3-1.6 0-2.2.4-.4.3-.5.8-.8 1.1-.5.6-1 .4-1.2 1-.4 1.1.8 2.2.6 3.3-.2.8-.3 1.8-1 2.3-.5.4-1.9 0-2.5.5-1.1.8-1.4 1.8-2.1 2.5-.5.4-.2 1.2-.9 1.9-.2.2.3.7.2 1-.1.4 0 1-.3 1.1-.6.1-1.2.1-1.7.4-2.1 1.5-1 1.7-1.6 2.5-.4.5-.1.9-.2 1.5-.1.8-1.4 1.6-1.1 2.2.3.7.9.9 1.2 1.5.4.8.5 1.3.4 2.7 0 .4-.9.8-.9 1.2 0 .3.4.6.3.8v1.1c0 .7 1.3.6 2.1.5 1-.1 1.2.9 2.3 1.9.9.8 2.1 1.3 2.8 2 .4.4 1.1 1 1 1.5 0 .3.6.2.9.3.6.2 1 .1 1.5 1 .4.6.3 1.4.7 1.9.8 1 1.3.8 1.9 1.5.5.6-.3 1.6-.5 2.2-.2.6 1.2.7 1.7 1.3.4.6.5.9 0 1.8-.2.4.6.6.9.7.8.2 1.7.4 2.4.5.3 0 .6.4.4.8-.1.4-.5.9-.3 1.3.3.9 1 0 1.7 2 .2.5-.4 1.2-.6 1.6-.2.4.5.2 1.2.4.5.2.9.7 1.2.9.5.3.6-.3 1.7-.3 1.2 0 2.9.2 3.9-.1.5-.2.8.4 1.6.8.4.2 1 .1 1.5.3.4.2.7.7 1 .9.8.6.7 2.3.9 3.2.1.7.9.7 1.3 1.7.2.4-.5 1-.1 1.5.2.3 1.5.3 1.7.5.7.8 1.4 1.4 1.9 1.8.5.3.3-.7 1.7-.5.6.1 1.2.5 2.2.6 1.2.1 4.1-.6 5.4-.1.8.3.4 1.2.6 2.6.1.5-.7 1-1.2 1.6-.6.7-.8 1.6-.5 2.3.3.5.4.6.2 1.7-.1.4-.7.7-.9 1.2-.3.5-.2 1.2-.2 1.5-.1.6 1.3-.3 2 .8.4.6.5 1.8 1.2 2 .3.1 1.1-1.5 1.4-1.5.3.1.5.1.7.2.7.2.6-.5 1.6-.3.5.1.5.8 1.1.7.9-.2.8.9 2.1 1.7.4.2.2-.9 1.1-.9.4 0 1.1.9 1.6.8.8-.1 1.2-.9 2.9-.7.9.1 1.3 1.4 2.3 2.4.7.7 2.3.8 3.1 1.7.5.6.8 1.5 1.3 2 .4.4 1.2.7 1.6 1 .5.5.6.6 1.5.7.7 0 1-.7 1.7-.6.6.1.5.9 1 .8.7-.1.9-.6 1.3-1.2.3-.4 1-.2 1.4-.3.3-.1.6-.5.8-.6.4-.1.8-.2 1.1-.4.9-.3.1-2.4.8-2.6.7-.3 1.2.4 2.2-.2.2-.1-.1-1 .1-1.2.4-.3.7.4 1 .1.4-.3.6-1 .9-1.3.8-.8-1.2-2.6.7-3.9.7-.5 1.6-.1 2.4-.2.6 0 .2.9 1.3 1.2.8.2 2.4-.1 3.9-.4.6-.1.2.5 1.8.5.7 0 1.2-.4 1.8-.8.6-.4 1.7-.6 2.2-1.2.2-.3 0-.9.2-1.1.5-.6 1.1-.2 2.5.4.4.2 1.4-.7 1.9-.6.4.1.5.7.9.7.7.1 1.2-.1 1.8 0 .6.1.2 1.7 1.4 1 .3-.2.4-1.1 1.4-1.1 1 0 1.2-.6 1.8.1.3.4 1-.3 1.6-.4.2-.1.9-.2 1.3-.5s.5-.7.7-.7c1.3-.3 1.6 1 2.5.9 1.3-.2.7-1.8 1.7-2 .4-.1 1 .6 1.4.6.4 0 .5-.6 1-.7.7-.1 1.9 0 2.7-.3.5-.2.6-.8 1-.9.8-.1 1.3.3 1.8 0 .4-.3.7-.8 1.1-1.1.4-.4.8-.3 1.1-.6 1.4-1.5.5-3.2 1.8-3.1.4 0 1.1 0 1.2-.4.1-.5.1-1.5.3-2.1.2-.6.3-.8.6-.7.5.1 1.5.1 2.1.1.8-.1.9-.4 1-.8.1-.7.3-1.2.6-1.6.2-.3.8 1.1 1 .8.7-1 .9-1.5 1.6-1.6.9-.2.4.5 1.1.9.7.4 1.7.8 2.3 1.5.9 1.2.6 0 .9-.1.6-.1.5 1.3 1.3 1.2.4-.1 1-.4 1.3-1.5.2-.8 1-.9 1.2-.5.4.8 1.2-.6 2-.6.4 0 .8.3 1.3.2.4 0 .9-.4 1.2-.3.2 0 .2.5.4.6.3.1.7-.3.8 0 .2.4 0 .9 1 1.3.5.2.2 1 .3 1.5.1.7.3 1.4.5 1 .1-.2.4-.5.4-.9.1-.9-.1-2.1.8-1.2.4.4.5 1.4.9 2 .3.6.9.9 1.1.6.2-.4 0-1.1.2-1.6s1.4 0 2 .4c.3.2.8.2 1.1.4.4.2 1 1 1.4 1.2.2.1 1-.4 1.2-.3.5.3.7 1.2 1.1 1.5.9.8 1.1.4 1.6.1.2-.1 0-.6.3-.8.2-.1.9.1 1 0 .2-.2.1-.6.3-.7.4-.3 1.2-.6 1.6-.9.4-.3 1.1-.3 1.5-.6.4-.3.5-1.5.9-1.8.1-.1.8.2.8 0 .1-.4.1-1.2.4-1 .4.2.8.5 1.2.4.4-.1.5-.6.8-.9.5-.5 1 .1 1.3-.4.2-.3.1-1.7.3-2.1.2-.3.8-.5.9-.8.3-.5 0-2.2.2-2.6.2-.3.8-.1 1-.3.5-.5-.1-1.2.3-1.3.3-.1 1 .3 1.3.2.6-.2 1.9-1.6 2.6-1.8.8-.3 2.1.1 2.9-.1.9-.2 1.1-.6 1.7-.8.7-.3.7-.9 1.1-.8.8.1 1.3.6 2.4.7.9.2 1.7 0 2.6.1 1.1.1 1.6-.1 2.2.3.3.2.3.6.5.8.3.3.9-.1 1.4.1 1 .5 1.1 2.6 1.4 1.9.2-.4.5-1.2.9-1.5.3-.3 1-.3 1.4-.7.2-.2.1-.5.3-.7.1-.1.8 0 1-.1.2-.1.2-.9.4-1 .3-.3 1.3-.3 1.6-.5.4-.3.4-.8.6-1.1.5-.7.7-1.2 1.1-1.7.2-.2.1-.6.3-.9.4-.5.6-.5 1.1-1 .8-.8.6-2.3 1.5-2.2.5 0 1.3-.2 2-.1.5 0 1.4.3 1.9.3.9.1 1.5-.5 2-.4.6 0 .7.6 1.1.9.2.1.6.3 1 .3s.8-.3 1.1-.1c.3.2.3.6.6.8.4.2 1.2.4 1.5.6 1.1.8.8 1.1 1.2 1.6.2.3.4.9.8 1.2.3.3.8.3 1.1.7.4.5.3.8.5 1.2.2.4.3 1 .7 1 .7 0 1.2-.6 1.6-.6.4 0 .7.5 1.1.5.4 0 1.1-.5 1.5-.5.3 0 .2.3.5.4.3.1.4-.4.7-.4.4.1.3.5.6.5.8 0 .8-.8 1.3-.6.3.1-.2.7 0 .9.1.2.4.4.4.6.1.2-.4.4-.3.6.1.2.7.4.8.6.1.3-.5 1-.2 1.7.5 1.2 1.5.6 1.5 1 .1 1.5.5 1.6 1.2 1.8.4.1 1 .1 1.7.2.6.1 1.1.3 1.5.1 1.1-.3.7-1.4 1.3-1.3.5.1.9 0 1.6.1.6.2 1.4 1.1 1.5.2.1-.9-.5-2.2.2-2.4.2-.1.4.4.6.3.2-.1 1.7.3 2 .2.3-.1.2-.8.4-1 .2-.2 0-.9.2-1 .6-.5.8.8 1.2.8.4 0 .5-.9.8-1.2.4-.3 1.1-1.1.9-1.5-.1-.3-.6-.4-1-.7-.8-.4-.3-.8 0-.9.3 0 .8.7 1.2.7.3 0 .3-.3.6-.4 1.1-.2.9-.4 1.9-.6 1.5-.2 2 .2 2.7.1.8-.1 1.4-.8 1.4-1.1-.1-.4-.8-.8-1.2-1.2-.8-.8-1-2.2-.5-2.9.3-.5.4-1.4.9-2l1.8-2.7c.5-.6.4-1.9.8-2.5.3-.4 1.2.1 1.5-.3 1.6-1.8 1.5-2.6 2.6-3.7s3.5-.1 4.1 1.1c.5.9-.3 2 .2 2.6.2.2 1.3.6 1.6 0 .3-.6.7-.6 1-.2.5.6.7 1.1 1.2 1 .4 0 .7-.7 1.5-.6.8.1 2.2-1.2 1.7-1.7-.3-.3-.8-.5-1-1-.2-.4-.3-1-.2-1.5.1-.5.3-1.1.7-1.7.4-.7.6-.9.9-1.3.2-.3 1.1-.2 1.3-.6.6-1 .9-2.5 1.1-2.9.8-1.6 1-1.5 1.7-1.8.5-.2 2.2-.6 2.8-.8.3-.1.6-1.4.9-1.5.5-.2 2.5.8 3 .6.6-.2 1.3-1 1.8-1.2.2-.1.7.1.9 0 .3-.1.4-.6.7-.7 1.9-.8 1.8-.9 2.8-1 .6 0 1.2.3 2 .2 1.6-.1 2.8-.5 3.6-1.4 1-1.3 1.4-2.9 2.8-3.5.7-.3 2-.2 2.9-.6.9-.4 2.5-1.4 3.4-1.9.8-.4 1.5-.3 2.1-.6 1.6-.6 1.6-1.5 2.5-2 .3-.1.6.2 1-.1.5-.4.2-1 .6-.9.4.1.9.1 1.4.2.2 0 .4 1.1.6 1 .3-.1.1-1.6.5-1.4.3.2.6.5.8.4.3-.2.5-.6.8-.5.5.2.6.7 1 .7.3 0 .5-.5.6-.4.3.3.7.6.9.9.2.3.9 0 1.1.2.4.4.3 1.3.5 1.7.7 1.2 1.1 1.4 1.8 1.4.5 0 .6-.9 1.1-1.1.3-.1 2.2.1 2.4.5.2.4.6 1.2.7.8 0-.1-.1-.6-.1-.9 0-.4.1-.8.3-.9.3-.1 1.4-1.4 1.7-1.6.5-.3.7.4 1.1.3.6-.2 1.1-.8 1.1-.8v-2l.6-1.2c.3-.5 1.1-.3 1.7-.4.8-.1 1.9.7 2.5.1.3-.3 2 .8 2.3.5.4-.4-.2-1.7 0-2.3.4-1.3.7-1.8 1.5-2 .9-.2 2.6.4 2.7-.5.1-.7-.1-1.6.3-2.2.2-.3.7-.5 1.2-.9.4-.3.7-.7 1.1-.9.3-.1.7 0 .9 0 .6-.2.8-.2 1-.5.2-.4-.1-.7 0-.9.1-.2.5-.7.6-.9.6-1.5.5-2 .5-3 0-.8-.3-1.7.1-2.3.3-.4 1.1-.4 1.4-1 .4-.7.4-1.4.4-2.1-.1-1.5-.6-3.3 0-4.7.4-1 2.8-2.7 2.7-4-.1-1.4-.5-2.2-.6-3.3-.2-1.6 1.4-2.4.7-3.1-.3-.3-.1-1.2-.5-1.5-.8-.6-2.6.2-2.3-.5.3-.8.3-2.5 1.1-2.6 2.5-.5 2.2-.7 2.4-1.7.4-1.7-1.2-2.3-.8-3.4.1-.4.9-.5 1-1 .8-2.5.7-4.3 1.2-6.1.2-.7 1.4-1 2.1-.9 1.1.1 2.2.4 3.3.3 1.5-.2 3.3-.1 4.5-1 1.4-1.2 4.5-4.9 6.3-4.8 1.1 0 2.8 2.4 3.6 2.8.7.4 1.3-.6 1.6-.2.2.3.4.7.4 1.1.1 1.8-.7 3.9.4 5.4 1 1.3 1.4 2.7 2.4 3.8.9 1.1 3.9 3.7 5.3 1.3.6-1.1.1-2.4.8-2.1.7.3 1.4 1 2 .7.4-.2.5-.6.9-.9.3-.2 1.1-.1 1.4-.3.4-.3 1.1-1.2 1.5-1.5.4-.3 2.3-.7 2.7-1 .8-.6 1.4-1.1 1.9-1.5.4-.4 1-.6 2-.6 1.4-.1 2.4 1.2 2.9.4.3-.5.2-1.7.1-2.6-.1-2.1-1.8-2.1-1.5-3.3.4-1.5 2.3-1.8 3.2-2.9.5-.7 1.3-1.4 1.9-2.4.4-.8.8-2.6 1.2-3.4 1.1-2.6 1.1-2.5 1-3.8-.2-2 1.2-3.8.5-4.8s-1.8-1.5-2.7-2.7c-.9-1.1-1.3-2.3-2.1-3.6-1.4-2.3-2.4-2.4-3.3-3.4-1.3-1.5-1.3-2-2.1-2.6-.4-.2-.9-.5-1.3-.8-.4-.2-.2-.8-.6-1-.4-.3-1.9-.6-2.3-.8-1.3-.6-1.8-.4-2.6-.8-.7-.4-1.9-1.2-2.9-.6-1.2.6-3 .5-4.4.7-2.9.4-4.2.6-5.5-.5-.4-.3-.6-1-1-1.3-1-.8-2-2.3-3-3-1.5-1.1-2.2-.6-2.7-1.5-.3-.5-.1-2.3-.5-3-.8-1.3-1.4-1.5-2.3-2-1.9-1-2-1-3.1-1.2-1.4-.7-2.1-.4-4.1-.4z" id="island"/></svg>